<?xml version="1.0" standalone="no"?>
<!DOCTYPE svg PUBLIC "-//W3C//DTD SVG 1.1//EN" "http://www.w3.org/Graphics/SVG/1.1/DTD/svg11.dtd" >
<svg xmlns="http://www.w3.org/2000/svg">
<metadata></metadata>
<defs>
<font id="gfs_porsonregular" horiz-adv-x="1101" >
<font-face units-per-em="2048" ascent="1522" descent="-526" />
<missing-glyph horiz-adv-x="604" />
<glyph unicode="&#xd;" horiz-adv-x="604" />
<glyph unicode=" "  horiz-adv-x="604" />
<glyph unicode="&#x09;" horiz-adv-x="604" />
<glyph unicode="&#xa0;" horiz-adv-x="604" />
<glyph unicode="!" horiz-adv-x="516" d="M121 1276q0 -80 15.5 -214.5t28.5 -219t44.5 -266.5t34.5 -199h28q62 375 76 450q47 285 47 449q0 71 -37 121.5t-100 50.5q-59 0 -98 -53t-39 -119zM125 98q0 -56 37.5 -93.5t93.5 -37.5t93.5 37.5t37.5 93.5q0 54 -38.5 91.5t-92.5 37.5q-55 0 -93 -37.5t-38 -91.5z " />
<glyph unicode="&#x22;" horiz-adv-x="872" d="M152 1380q0 -46 30 -209l43 -219h33q5 27 17.5 93t20 107.5t16.5 94t13.5 88t4.5 54.5q0 30 -27.5 54.5t-60.5 24.5t-61.5 -27t-28.5 -61zM541 1380q0 -23 5 -63.5t14.5 -94t17.5 -96.5t19.5 -99.5t14.5 -74.5h33l43 219q31 169 31 209q0 35 -27.5 61.5t-62.5 26.5 q-33 0 -60.5 -26.5t-27.5 -61.5z" />
<glyph unicode="#" horiz-adv-x="1069" d="M10 457h232l-74 -457h96l76 457h305l-72 -457h99l69 457h254v98h-237l49 313h248v99h-232l68 446h-94l-70 -446h-311l71 446h-96l-74 -446h-247v-99h235l-49 -313h-246v-98zM350 555l53 313h308l-49 -313h-312z" />
<glyph unicode="$" horiz-adv-x="1069" d="M94 -33h31q9 60 45 99q156 -99 322 -99v-184h71v184q183 12 298.5 113.5t115.5 267.5q0 81 -26 147t-84 125t-126.5 106.5t-177.5 109.5v540q123 -8 209.5 -84.5t106.5 -197.5h32v346h-30q-9 -66 -50 -90q-101 87 -268 90v139h-71v-139q-164 -5 -272.5 -92.5 t-108.5 -235.5q0 -57 9 -103.5t32 -89t49.5 -76t75.5 -74.5t94 -73.5t121 -83.5v-577q-313 3 -365 321h-33v-389zM272 1163q0 78 70 145.5t150 67.5v-504q-56 43 -82 64t-59 52t-46 54t-23 54t-10 67zM563 35v543q157 -112 162 -115q84 -72 84 -170q0 -107 -69 -180.5 t-177 -77.5z" />
<glyph unicode="%" horiz-adv-x="1783" d="M131 911q0 -295 256 -295q83 0 164.5 50.5t140 128.5t95 174t36.5 184q0 11 -9 58t-9 57q47 -15 106 -15q131 0 267 56l-748 -1338h105l823 1477h-103q-114 -150 -319 -150q-96 0 -178 60q-80 57 -166 57t-171 -45.5t-148 -116.5t-102.5 -162.5t-39.5 -179.5zM295 850 q0 65 27 152t68.5 165t99 132.5t112.5 54.5q8 0 43 -17t69.5 -36t35.5 -19q18 -86 18 -98q0 -77 -27 -163.5t-71.5 -160t-109 -122t-132.5 -48.5q-133 0 -133 160zM961 262q0 -291 272 -291q117 0 215.5 87t151.5 214t53 256q0 99 -66 168.5t-162 69.5q-115 0 -224 -75.5 t-174.5 -193t-65.5 -235.5zM1124 184q0 96 44.5 214t122 207t157.5 89q66 0 108.5 -52.5t42.5 -123.5q0 -75 -27.5 -159.5t-72.5 -156.5t-110 -119.5t-132 -47.5q-133 0 -133 149z" />
<glyph unicode="&#x26;" horiz-adv-x="1665" d="M92 309q0 -165 101 -253.5t276 -88.5q223 0 459 199q187 -199 354 -199q196 0 313 248l-16 12q-71 -102 -199 -102q-149 0 -325 188l217 351q141 205 311 202v64h-534v-64q161 6 161 -100q0 -57 -67.5 -181t-136.5 -214q-143 182 -287 452q334 135 334 367 q0 116 -83.5 187t-209.5 71q-138 0 -229 -98.5t-91 -241.5q0 -99 72 -303q-182 -87 -301 -217t-119 -279zM274 365q0 116 66.5 199t206.5 169q186 -343 323 -510q-155 -143 -297 -143q-132 0 -215.5 78t-83.5 207zM602 1176q0 219 166 219q71 0 120.5 -60.5t49.5 -136.5 q0 -92 -70.5 -174t-179.5 -135q-86 174 -86 287z" />
<glyph unicode="'" horiz-adv-x="387" d="M104 1380q0 -18 4.5 -52.5t13.5 -85.5t16.5 -92.5t20 -105.5t17.5 -92h35q70 381 70 434q0 32 -26.5 57t-59.5 25q-36 0 -63.5 -26.5t-27.5 -61.5z" />
<glyph unicode="(" horiz-adv-x="782" d="M113 737q0 -587 575 -934l29 33q-226 165 -315 378t-89 544q0 580 404 833l-23 37q-272 -151 -426.5 -382t-154.5 -509z" />
<glyph unicode=")" horiz-adv-x="782" d="M70 -164l18 -33q264 138 423 371t159 504q0 187 -73 378t-205.5 345.5t-295.5 226.5l-26 -37q223 -141 312 -361.5t89 -557.5q0 -576 -401 -836z" />
<glyph unicode="*" horiz-adv-x="823" d="M43 1210q0 -18 9.5 -34.5t32 -30.5t41 -24.5t55.5 -23t56 -18t62 -17.5t55 -15q-17 -5 -55 -16.5t-60.5 -19t-56.5 -19.5t-54.5 -22.5t-41.5 -24.5t-31 -29.5t-10 -32.5q0 -35 22.5 -56.5t57.5 -21.5q41 0 129 82q22 21 43 40t35 31t25 21.5t17 14.5l5 5q-1 -23 -27 -131 t-26 -135q0 -38 24 -66t60 -28q35 0 59.5 28t24.5 64q0 45 -27 133q-34 101 -37 137l125 -112q88 -82 133 -82q31 0 54.5 24t23.5 56q0 17 -10 32t-30.5 28.5t-41.5 24t-54.5 22.5t-56.5 19.5t-61 19t-55 16.5l184 55q125 43 125 106q0 32 -24.5 55t-57.5 23q-39 0 -127 -82 q-107 -98 -125 -112q1 17 29 128t28 138q0 38 -23.5 66t-57.5 28q-35 0 -58.5 -28t-23.5 -66q0 -27 26 -139t27 -129q-14 7 -125 112q-88 82 -125 82q-36 0 -61 -22t-25 -54z" />
<glyph unicode="+" horiz-adv-x="1208" d="M66 475h471v-475h137v475h471v137h-471v469h-137v-469h-471v-137z" />
<glyph unicode="," horiz-adv-x="520" d="M121 84q0 -38 28.5 -69t65.5 -31q8 0 35 8t35 8q43 0 43 -47q0 -118 -195 -242l14 -20q98 47 175 138t77 177q0 72 -51.5 128t-120.5 56q-44 0 -75 -31t-31 -75z" />
<glyph unicode="-" horiz-adv-x="983" d="M207 475h594v137h-594v-137z" />
<glyph unicode="." horiz-adv-x="501" d="M121 98q0 -56 37 -93.5t94 -37.5q54 0 91.5 38t37.5 93q0 54 -37.5 91.5t-91.5 37.5q-55 0 -93 -37.5t-38 -91.5z" />
<glyph unicode="/" horiz-adv-x="595" d="M-27 -231h111l541 1691h-111z" />
<glyph unicode="0" horiz-adv-x="1085" d="M59 721q0 -139 30.5 -268t88.5 -235.5t153.5 -171t213.5 -64.5q85 0 162.5 46t134.5 122t99 171.5t63.5 197.5t21.5 198q0 122 -16 229t-52.5 203.5t-91.5 165t-137.5 109t-185.5 40.5q-117 0 -212 -66t-153 -174t-88.5 -237.5t-30.5 -265.5zM258 721q0 97 8 188 t28.5 182t52 158.5t81.5 109.5t113 42q78 0 136 -62t89 -165.5t45 -216t14 -236.5q0 -87 -9.5 -177t-31.5 -181t-53.5 -161.5t-80.5 -114.5t-107 -44q-61 0 -110.5 43t-81.5 112t-53.5 160t-30.5 181.5t-9 181.5z" />
<glyph unicode="1" horiz-adv-x="1085" d="M252 1110h94l143 145v-1105q0 -87 -81 -87h-125v-63h604l-4 63h-127q-82 0 -82 87v1294h-86z" />
<glyph unicode="2" horiz-adv-x="1085" d="M168 0h747l74 381h-63q-21 -183 -168 -180h-469q6 53 117 159l348 308q225 225 231 426q4 167 -104 269.5t-273 102.5q-150 0 -245.5 -69t-124.5 -191q34 -14 57 -20q18 59 70.5 109t121.5 63q14 2 48 2q100 0 174.5 -68.5t74.5 -169.5q0 -207 -288 -491 q-87 -86 -147 -158.5t-96 -130.5t-55 -118t-25 -109t-5 -115z" />
<glyph unicode="3" horiz-adv-x="1085" d="M139 223q0 -52 43 -104q107 -137 328 -137q186 0 307 86q143 94 152 278q4 167 -113.5 293.5t-282.5 134.5q61 6 125 41t114.5 86t80.5 118.5t25 133.5q-24 327 -383 309q-89 -2 -182 -56.5t-130 -133.5q3 -1 18 -9t27.5 -14t12.5 -4q34 54 110 91.5t154 31.5 q95 -7 152 -70t57 -151q1 -67 -18 -125t-60 -107t-113 -80t-170 -38v-62q158 3 264 -86q74 -62 105 -162.5t16.5 -197t-63.5 -158.5q-48 -61 -122 -80.5t-144 11t-105 104.5q-47 103 -63 119q-22 22 -60 22q-33 0 -57.5 -24t-24.5 -60z" />
<glyph unicode="4" horiz-adv-x="1085" d="M92 285q301 -2 510 -2v-136q3 -84 -82 -84h-129v-63h619l-13 63h-129q-82 0 -82 84v138h211v112h-211v1067h-88q-606 -1111 -606 -1179zM203 397l399 717v-717h-399z" />
<glyph unicode="5" horiz-adv-x="1085" d="M139 223q0 -51 41 -104q107 -137 330 -137q118 1 213.5 43.5t156.5 116.5t92.5 173t28.5 213q-3 131 -57 239t-152 175t-223 76q-20 2 -59 2q-83 0 -205 -29l19 305q179 -14 268.5 -15t341.5 11q3 4 38 77t44 83l-25 31q-13 -11 -22.5 -18t-14.5 -9t-6 0q-324 -37 -639 4 l-55 -20l-29 -627q8 2 30.5 7.5t33 8t36 7.5t39 6.5t42.5 5t46 2t50 -1.5q88 -4 158 -53t108 -125t41 -164q3 -94 -13.5 -176t-51.5 -147t-95 -102.5t-137 -37.5q-48 0 -96 34t-74 89q-47 103 -63 119q-23 20 -58 20q-36 0 -59 -22t-23 -60z" />
<glyph unicode="6" horiz-adv-x="1085" d="M115 543q0 57 2 86q7 115 49 232.5t116 223t169.5 189.5t218.5 136t254 58v-53q-156 -10 -295.5 -138.5t-237.5 -322.5q-79 -154 -76 -211q9 9 29 37q46 55 114.5 90t153.5 35q192 0 304.5 -117.5t105.5 -341.5q-3 -134 -67 -242t-167 -166t-223 -58q-115 0 -202 41.5 t-141 118t-80.5 177.5t-26.5 226zM297 494q0 -123 29 -226t82 -164t118 -61q134 0 217.5 119t83.5 301q0 344 -258 362q-49 3 -99 -23.5t-85.5 -65.5t-58.5 -81t-25 -71q-4 -62 -4 -90z" />
<glyph unicode="7" horiz-adv-x="1085" d="M250 1128h53q3 12 8 36.5t8 37.5q28 72 93 72h503q-27 -76 -95.5 -209t-108.5 -203t-133 -231q-216 -408 -222 -553q-2 -37 19 -65.5t55 -28.5q108 0 135 135q45 219 153.5 494t323.5 757v72h-692l4 45h-53z" />
<glyph unicode="8" horiz-adv-x="1085" d="M109 377q0 -188 118.5 -292.5t309.5 -102.5q213 0 349.5 116t135.5 318q-1 99 -50 189t-127 152.5t-173 96.5q272 49 278 279q1 152 -110 243t-275 86q-182 -2 -301 -105.5t-119 -273.5q0 -118 79 -220.5t198 -151.5q-131 -24 -221.5 -117t-91.5 -217zM252 336 q3 234 237 348l242 -119q131 -82 131 -229q0 -89 -48 -157.5t-121 -101.5t-154 -30q-117 2 -202.5 88t-84.5 201zM287 1169q0 94 85 161t187 67q113 0 180.5 -65t71.5 -183q6 -162 -203 -270q-24 11 -67 31q-66 30 -93.5 43.5t-64.5 35t-49 34.5t-26.5 36.5t-17.5 48 t-3 61.5z" />
<glyph unicode="9" horiz-adv-x="1085" d="M98 1006q3 134 67 242t167 166.5t223 58.5q115 0 202 -42t141 -118t81 -177.5t27 -226.5q0 -55 -2 -86q-6 -95 -37 -193.5t-82 -189.5t-124.5 -172t-159.5 -142t-190.5 -99t-213.5 -43v53q156 10 294.5 138.5t237.5 322.5q79 154 76 213q-15 -18 -27 -39 q-108 -125 -270 -125q-192 0 -304 117.5t-106 341.5zM293 989q0 -344 258 -362q49 -3 99 23.5t85.5 65.5t58.5 81t25 71q4 62 4 90q0 92 -17.5 175t-47 144.5t-72.5 97.5t-92 36q-66 0 -122.5 -32.5t-95.5 -88.5t-61 -134t-22 -167z" />
<glyph unicode=":" horiz-adv-x="512" d="M121 823q0 -54 38.5 -92.5t92.5 -38.5q56 0 93.5 38t37.5 93t-37.5 92t-93.5 37q-55 0 -93 -37t-38 -92zM129 98q0 -56 37.5 -93.5t93.5 -37.5q54 0 92.5 38t38.5 93q0 54 -38.5 91.5t-92.5 37.5q-55 0 -93 -37.5t-38 -91.5z" />
<glyph unicode=";" horiz-adv-x="546" d="M121 98q0 -55 38.5 -93t94.5 -38q26 0 55 29q13 -16 13 -43q0 -71 -54 -134.5t-127 -84.5v-49q72 0 139 53t106.5 131.5t39.5 155.5q0 85 -41 145.5t-113 60.5q-63 0 -107 -37t-44 -96zM125 823q0 -54 37.5 -92.5t91.5 -38.5q55 0 94 38.5t39 92.5q0 55 -38.5 92 t-94.5 37q-54 0 -91.5 -37t-37.5 -92z" />
<glyph unicode="&#x3c;" horiz-adv-x="1208" d="M59 504l1088 -797v135l-983 717l983 717v135l-1088 -795v-112z" />
<glyph unicode="=" horiz-adv-x="1208" d="M66 246h1079v137h-1079v-137zM66 659h1079v140h-1079v-140z" />
<glyph unicode="&#x3e;" horiz-adv-x="1208" d="M68 -158v-135l1089 797v112l-1089 795v-135l983 -717z" />
<glyph unicode="?" horiz-adv-x="978" d="M121 1165q0 -46 35 -79t80 -33q40 0 74 26t34 62q0 16 -16.5 48t-16.5 50q0 66 52.5 103.5t128.5 37.5q88 0 138 -52.5t50 -143.5q0 -104 -66 -215q-10 -14 -122 -187q-66 -123 -66 -254l6 -178h33q3 183 104 320l189 209q100 118 100 260q0 143 -103 222t-263 79 q-152 0 -261.5 -73.5t-109.5 -201.5zM319 98q0 -55 38 -93t93.5 -38t93.5 38t38 93q0 36 -17 65.5t-47.5 46.5t-66.5 17q-54 0 -93 -37.5t-39 -91.5z" />
<glyph unicode="[" horiz-adv-x="710" d="M186 -283h453v60h-291v1628h291v63h-453v-1751z" />
<glyph unicode="]" horiz-adv-x="710" d="M78 -223v-60h450v1751h-450v-63h289v-1628h-289z" />
<glyph unicode="_" horiz-adv-x="1069" d="M0 -182v-103h1069v103h-1069z" />
<glyph unicode="{" horiz-adv-x="1028" d="M236 551q172 -46 172 -297q0 -27 -7.5 -152.5t-7.5 -150.5q0 -77 14 -131.5t46.5 -94.5t89.5 -58.5t141 -16.5h47q-182 35 -182 293q0 24 6 144.5t6 145.5q0 268 -182 318q182 47 182 299q0 26 -8 152.5t-8 152.5q0 259 186 305q-98 1 -165 -19t-105.5 -62t-55 -98.5 t-16.5 -135.5q0 -28 9.5 -158t9.5 -158q0 -232 -172 -278z" />
<glyph unicode="|" horiz-adv-x="428" d="M145 0h138v1460h-138v-1460z" />
<glyph unicode="}" horiz-adv-x="1028" d="M297 -350h47q84 -2 141 16.5t89 58.5t45.5 94.5t13.5 131.5q0 27 -7.5 152.5t-7.5 150.5q0 250 173 297q-170 47 -170 278q0 27 8 157.5t8 158.5q0 79 -16.5 135.5t-54.5 98.5t-105 62t-164 19q186 -46 186 -305q0 -26 -7 -152.5t-7 -150.5q0 -255 180 -301 q-180 -49 -180 -318q0 -24 5 -144.5t5 -145.5q0 -258 -182 -293z" />
<glyph unicode="~" horiz-adv-x="1159" d="M43 459q61 -67 74 -88q26 56 54.5 95t56 62.5t60.5 33t62.5 9t69 -12t73 -27t80.5 -39.5q147 -78 244 -78q186 0 305 241l-82 88q-83 -182 -223 -182q-42 0 -225 74q-186 74 -246 74q-87 0 -172.5 -71.5t-130.5 -178.5z" />
<glyph unicode="&#xa7;" horiz-adv-x="1069" d="M154 606q0 -162 143 -293q35 -26 127 -94t141 -106q144 -114 144 -224q0 -72 -53 -116.5t-130 -44.5q-48 0 -90.5 50.5t-42.5 102.5q0 6 14.5 33.5t14.5 36.5q0 24 -23 43.5t-49 19.5q-53 0 -90 -27.5t-37 -70.5q0 -102 87 -167.5t202 -65.5q130 0 221.5 70.5t91.5 187.5 q0 93 -45.5 163t-150.5 162q124 -10 204 64.5t80 199.5q0 141 -145 283q-28 23 -91.5 73t-97.5 78t-83.5 73t-75.5 76t-46 67.5t-20 66.5q0 71 48.5 113.5t123.5 42.5q47 0 90 -42t43 -89q0 -24 -12 -51q-14 -25 -14 -41q0 -24 24 -44t48 -20q51 0 87.5 27.5t36.5 70.5 q0 105 -85 169.5t-203 64.5q-131 0 -218 -71t-87 -191q0 -88 48 -157.5t158 -164.5q-10 2 -34 2q-113 0 -183.5 -71t-70.5 -189zM260 672q0 63 43.5 107t106.5 44q42 0 110.5 -39t130.5 -93.5t107 -116.5t45 -103q0 -47 -20 -83t-56 -55.5t-84 -19.5q-36 0 -87 25.5 t-101.5 66.5t-95 88t-72 95.5t-27.5 83.5z" />
<glyph unicode="&#xab;" horiz-adv-x="1294" d="M78 410l526 -406l39 41l-346 363l346 366l-33 45zM563 410l529 -406l38 41l-346 363l346 366l-32 45z" />
<glyph unicode="&#xad;" horiz-adv-x="983" d="M207 475h594v137h-594v-137z" />
<glyph unicode="&#xb2;" horiz-adv-x="542" d="M47 1341q0 -71 64 -71q65 0 65 47q0 11 -22 33q-23 23 -23 41q0 40 38 68t83 28q59 0 92 -47.5t33 -114.5q0 -233 -316 -512v-16h420v188h-26q0 -102 -66 -102h-209q67 62 197 186q102 117 102 244q0 90 -61 147.5t-154 57.5q-85 0 -151 -50t-66 -127z" />
<glyph unicode="&#xb3;" horiz-adv-x="542" d="M49 924q0 -64 62.5 -104t140.5 -40q109 0 190.5 57t81.5 150q0 82 -65 135.5t-154 53.5q82 5 136.5 51t54.5 119q0 77 -55 125.5t-138 48.5q-71 0 -141 -36t-70 -89q0 -70 53 -70q56 0 56 41q0 6 -8.5 25t-8.5 24q0 72 92 72q132 0 132 -133q0 -165 -195 -162h-33v-35 q120 -2 178 -33.5t58 -119.5q0 -191 -168 -191q-38 0 -70.5 20t-32.5 50q0 9 12.5 35t12.5 36q0 47 -49 47q-72 0 -72 -77z" />
<glyph unicode="&#xb5;" horiz-adv-x="1134" d="M2 -375q0 -105 53 -108q72 -1 99.5 81.5t27.5 256.5q2 14 -2 104q-9 132 17 213q14 -102 75.5 -149.5t192.5 -47.5q101 8 156.5 35.5t128.5 118.5q9 -156 116 -156q83 0 154.5 83t83.5 188l-53 4q-58 -131 -133 -131q-87 0 -87 86q0 106 105 485q10 33 13.5 56.5t-1 37 t-10.5 20.5t-21.5 8.5t-28 1t-37 -2.5t-40.5 -2q-81 -367 -123 -567q-6 -34 -22.5 -67.5t-42.5 -64.5t-66.5 -50.5t-89.5 -20.5q-91 0 -137.5 39.5t-44.5 113.5q3 44 34.5 198t62.5 286.5t32 132.5h-164q-171 -768 -182 -815q-66 -299 -66 -367z" />
<glyph unicode="&#xb9;" horiz-adv-x="542" d="M98 1186h35l107 186v-543h-97v-32h281v32h-96v674h-56z" />
<glyph unicode="&#xbb;" horiz-adv-x="1294" d="M233 45l41 -41l527 406l-535 409l-33 -45l347 -366zM721 45l39 -41l528 406l-534 409l-33 -45l346 -366z" />
<glyph unicode="&#xbc;" horiz-adv-x="962" d="M188 811q0 -30 18 -50t48 -20h434q-32 -62 -131 -231l-96 -166q-74 -128 -162 -289q-29 -56 -29 -61q0 -29 16 -56.5t44 -27.5q34 0 60.5 30.5t41.5 69.5l279 715q18 42 18 63q0 35 -31 54q-60 35 -188 35q-88 0 -207 -13q-54 -4 -55 -4q5 24 53.5 166.5t48.5 216.5 q0 25 -21.5 41t-47.5 16q-31 0 -55.5 -20.5t-24.5 -50.5q0 -29 19.5 -46.5t49.5 -17.5l21 2l-55 -184q-30 -103 -33 -113q-15 -52 -15 -59z" />
<glyph unicode="&#x386;" horiz-adv-x="1409" d="M-29 1008q9 17 94.5 205t98.5 212q12 18 33.5 28.5t42.5 10.5q34 0 58 -24t24 -56q0 -6 -5 -26q-12 -27 -41 -64l-239 -286q-60 3 -66 0zM43 0v68q6 -2 25 -2q147 0 211 196l389 1194h61q70 -222 125 -394t87 -272t70.5 -211t50.5 -145t51.5 -144t51.5 -143 q10 -32 46 -58t67 -26h72v-63h-619v63h135q33 0 57.5 27.5t24.5 65.5q0 16 -6 34l-88 291h-416q-2 -2 -96 -305q-6 -15 -6 -31q0 -82 199 -82v-63h-492zM465 561h362l-180 572z" />
<glyph unicode="&#x387;" horiz-adv-x="702" d="M201 823q0 -54 38.5 -92.5t92.5 -38.5q56 0 93.5 38t37.5 93t-37.5 92t-93.5 37q-54 0 -92.5 -37.5t-38.5 -91.5z" />
<glyph unicode="&#x388;" horiz-adv-x="1746" d="M-39 1004q9 18 94.5 206t98.5 211q25 39 75 39q34 0 58 -24t24 -56q0 -10 -4 -26q-8 -18 -41 -64l-239 -286q-60 3 -66 0zM516 1378v62h1065l10 -471h-55q-23 106 -55 179.5t-75.5 120t-95 70.5t-120.5 33q-31 5 -275 8v-628h158q60 0 109 78.5t53 211.5h55v-659h-55 q0 133 -51 219t-111 86h-158v-631q31 1 67 0.5t88.5 -1.5t62.5 -1q65 0 114 7t95 25.5t79.5 50.5t63.5 81t53 118t41 161h57l-37 -496h-1081v55h125q41 0 62 21.5t20 62.5v852q3 286 0 289q0 93 -80 96h-129z" />
<glyph unicode="&#x389;" horiz-adv-x="1964" d="M88 1016q12 22 97.5 209.5t97.5 208.5q10 18 31 28.5t42 10.5q34 0 58 -24t24 -56q0 -10 -1.5 -19t-4 -15.5t-7 -14t-8.5 -12.5t-11 -14t-11 -15l-239 -287q-65 3 -68 0zM606 1384v62h570v-62h-119q-83 0 -80 -79v-523h541v523q0 79 -76 79h-121v62h569v-62h-121 q-77 0 -77 -77v-1170q0 -30 22.5 -52t54.5 -22h123v-61h-573v61h121q78 0 78 80v570h-543v-570q0 -80 78 -80h121l4 -65h-570v68h121q76 0 76 79v1162q0 77 -78 77h-121z" />
<glyph unicode="&#x38a;" horiz-adv-x="1327" d="M68 1004q9 18 94 206t98 211q12 18 33.5 28.5t42.5 10.5q34 0 58 -24t24 -56q0 -10 -4 -26q-8 -18 -41 -64l-240 -286q-59 3 -65 0zM647 0v57h127q83 0 80 84v1145q0 92 -80 92h-127v62h602v-62h-127q-82 0 -82 -82v-1155q0 -84 84 -84h127v-57h-604z" />
<glyph unicode="&#x38c;" horiz-adv-x="1771" d="M39 1006q45 88 100 215q67 158 92 200q11 19 32.5 30t43.5 11q34 0 58 -25t24 -57q0 -17 -7 -33.5t-14.5 -26t-23.5 -28.5l-240 -286h-65zM510 725q0 110 27.5 218.5t79.5 202t121 165.5t158 113.5t185 41.5q183 0 317.5 -102t199.5 -268.5t61 -370.5q-2 -118 -26.5 -228 t-73 -203.5t-115 -163t-157 -109t-195.5 -39.5q-170 0 -304.5 103.5t-206 272.5t-71.5 367zM731 733q0 -88 3.5 -159t14 -144t27.5 -128.5t44.5 -105t65 -81t89.5 -50t117 -18.5q62 0 112 19t85.5 51t62.5 82t43 106t26 128.5t13.5 143t3.5 156.5q0 89 -4 160.5t-14.5 142 t-27.5 124t-44 100t-63.5 76t-86 46.5t-111.5 17t-112 -17.5t-86.5 -48.5t-64.5 -78.5t-45.5 -102t-28 -124t-15 -140t-4.5 -155.5z" />
<glyph unicode="&#x38e;" horiz-adv-x="1900" d="M55 1016q51 100 101 215q68 161 92 201q11 19 32.5 30t43.5 11q34 0 58 -25t24 -57q0 -17 -7.5 -33.5t-14.5 -25.5t-24 -29l-239 -287h-66zM684 1272q33 69 72 111t76.5 56t76 9.5t71 -24t62.5 -50.5q71 -75 148.5 -229.5t204.5 -474.5q5 12 40.5 102.5t53.5 134.5 t51 122.5t63 140t58 112.5q64 112 128.5 148t115 -6t75.5 -152l-38 -27l-29 23q-35 24 -70 24q-81 0 -164 -157q-136 -264 -249 -553v-441q0 -84 81 -84h127v-57h-604v57h129q82 0 82 84v439q-41 146 -233 518q-109 214 -199 217q-20 1 -54.5 -33.5t-37.5 -44.5z" />
<glyph unicode="&#x38f;" horiz-adv-x="1826" d="M49 1010h68l239 286q29 37 41 64q4 12 4 24q0 32 -24 57t-58 25q-22 0 -43.5 -11t-31.5 -30q-12 -21 -98 -208.5t-97 -206.5zM535 883q0 -472 434 -613v-90h-277q-92 0 -92 68q0 17 2 35v32h-51v-315h481v319q-151 95 -208.5 222t-59.5 338q0 147 41.5 260t129.5 181.5 t212 68.5q86 0 157 -42.5t116 -113.5t69 -161t24 -189q0 -398 -251 -564v-319h475v315h-47q-1 -14 -4.5 -43t-4.5 -45q-15 -41 -92 -41h-262v88q195 62 307.5 225t112.5 384q-1 167 -81 297t-215.5 199t-303.5 69q-125 1 -237.5 -41.5t-195 -116.5t-131 -180.5t-48.5 -226.5 z" />
<glyph unicode="&#x390;" horiz-adv-x="538" d="M-4 1141q0 37 29 65.5t67 28.5q37 0 65.5 -28.5t28.5 -65.5q0 -38 -28.5 -68.5t-65.5 -30.5q-38 0 -67 30t-29 69zM94 221q10 149 127 590q16 0 39.5 1.5t36 2t27.5 -1t21 -9t10 -21.5t0.5 -37.5t-13.5 -57.5q-111 -386 -111 -506q0 -94 74 -94q104 0 154 158h55 q-26 -118 -90.5 -192t-157.5 -74q-79 0 -128.5 62t-43.5 179zM248 1016q11 21 95.5 209t96.5 211q10 17 31.5 27t42.5 10q35 0 59.5 -23.5t24.5 -56.5q0 -13 -6 -25q-9 -26 -41 -63l-238 -289q-59 3 -65 0zM571 1141q0 38 28 66t65 28q38 0 67 -28.5t29 -65.5q0 -39 -29 -69 t-67 -30q-37 0 -65 30.5t-28 68.5z" />
<glyph unicode="&#x391;" horiz-adv-x="1409" d="M45 0h490v63q-199 0 -199 82q0 16 6 31q94 303 96 305h416l88 -291q6 -18 6 -34q0 -38 -24.5 -65.5t-57.5 -27.5h-135v-63h619v63h-72q-31 0 -67 26t-46 58q-12 33 -51.5 143t-51.5 144t-50.5 145t-70.5 211t-87 272t-125 394h-61l-389 -1194q-64 -196 -211 -196 q-19 0 -23 2v-68zM465 561l182 572l180 -572h-362z" />
<glyph unicode="&#x392;" horiz-adv-x="1290" d="M109 0h663q84 0 161 27t136.5 76t94.5 124.5t34 167.5q-1 99 -56 184t-139.5 135.5t-179.5 63.5q159 27 252 123q60 61 79.5 147t-9 171.5t-101.5 140.5q-101 81 -243 78h-692v-60h129q81 0 81 -84v-1153q0 -84 -81 -84h-129v-57zM504 57v688h184q125 0 211.5 -101 t87.5 -257q1 -78 -26.5 -152t-89 -126t-142.5 -52h-225zM504 801v577h219q116 0 177 -74.5t61 -185.5q0 -129 -77.5 -221.5t-191.5 -95.5h-188z" />
<glyph unicode="&#x393;" horiz-adv-x="1204" d="M82 0h602v57h-125q-85 0 -82 84v1223h273q86 -3 146.5 -42t107.5 -135.5t75 -256.5h49v510h-1046v-60h127q84 0 84 -84v-1155q0 -84 -84 -84h-127v-57z" />
<glyph unicode="&#x394;" horiz-adv-x="1259" d="M75 126q-33 -116 8 -152q37 -34 175 -26q51 3 187 16q411 40 724 42q-296 854 -507 1454h-56q-153 -415 -377 -943q-129 -305 -154 -391zM211 141q205 547 369 992l36 -104q35 -104 84 -248.5t98 -290.5t83.5 -247.5t33.5 -101.5q0 -3 -704 0z" />
<glyph unicode="&#x395;" horiz-adv-x="1265" d="M61 1378h129q82 -3 82 -96v-1141q0 -84 -82 -84h-127v-57h1082l39 498h-60q-22 -110 -51 -187.5t-65 -127.5t-87 -78.5t-107.5 -39t-135.5 -10.5q-10 0 -62 1t-88.5 1.5t-66.5 -0.5v631h157q60 0 111 -86t51 -219h56v659h-56q-4 -133 -53 -211.5t-109 -78.5h-157v628 q243 -3 274 -8q139 -18 219.5 -107t126.5 -296h56l-11 471h-1065v-62z" />
<glyph unicode="&#x396;" horiz-adv-x="1282" d="M86 0h1057l16 481h-65q-5 -112 -33 -189t-80.5 -122.5t-121.5 -66.5t-165 -25q-117 -2 -346 -2l838 1366h-1006l-8 -506h51q7 65 21 117.5t32.5 94.5t47.5 74t60 55.5t77 40t91 27t109 17t125 9t144 3.5z" />
<glyph unicode="&#x397;" horiz-adv-x="1415" d="M70 -2h571l-4 65h-119q-81 0 -78 80v570h541v-570q0 -80 -78 -80h-121v-61h574v61h-123q-32 0 -55 22t-23 52v1170q0 77 80 77h119v62h-568v-62h121q74 0 74 -79v-523h-543v523q0 79 82 79h119v62h-569v-62h120q78 0 78 -77v-1162q0 -79 -75 -79h-123v-68z" />
<glyph unicode="&#x398;" horiz-adv-x="1333" d="M90 725q0 -147 43 -282.5t118 -237.5t185 -162.5t236 -60.5q131 0 239 60.5t178 164t109.5 236.5t42.5 282q2 152 -35.5 286t-109.5 235.5t-183.5 160.5t-248.5 59q-159 0 -293 -108.5t-207.5 -278t-73.5 -354.5zM313 733q0 99 6 180t20.5 159t41 135.5t65 102t94.5 67 t128 22.5t128 -21.5t94.5 -65t64 -99.5t40 -134.5t20 -160t5.5 -185.5q0 -101 -5.5 -181.5t-18.5 -162t-38.5 -140.5t-63 -106.5t-94 -71.5t-128.5 -24q-89 0 -154 35.5t-104 94.5t-62 150.5t-31 186t-8 219.5zM430 483h59v92q0 82 84 82h193q84 0 84 -82v-92h57v510h-55 v-90q0 -82 -86 -82h-191q-86 0 -86 82v90h-59v-510z" />
<glyph unicode="&#x399;" horiz-adv-x="782" d="M109 1378h127q78 0 81 -92v-1145q0 -84 -79 -84h-127v-57h602v57h-127q-81 0 -84 84v1155q0 82 84 82h127v62h-604v-62z" />
<glyph unicode="&#x39a;" horiz-adv-x="1529" d="M72 1384h131q80 0 80 -88v-1149q0 -84 -84 -84h-121v-63h602l-4 63h-127q-82 0 -82 84v474l174 143q385 -594 385 -649t-180 -52l-4 -65h600v70q-83 0 -127.5 23.5t-83.5 86.5l-453 701q0 5 115 120t251.5 239t180.5 142q16 4 84 4v56h-473v-58q62 5 95 -8.5t32 -54.5 q0 -55 -297 -336q-154 -139 -299 -272v585q0 88 84 88h127v56h-606v-56z" />
<glyph unicode="&#x39b;" horiz-adv-x="1419" d="M45 0h490v57q-199 0 -199 82q0 14 8 33q120 386 123 389l178 567q213 -663 299 -944q4 -24 4 -34q0 -38 -24.5 -65.5t-55.5 -27.5h-137v-57h619v57h-72q-31 0 -67 26t-46 58q-49 146 -170 490q-17 48 -260 827h-61l-393 -1204q-65 -195 -213 -195h-23v-59z" />
<glyph unicode="&#x39c;" horiz-adv-x="1812" d="M90 0v63h129q80 0 80 76v1147q0 92 -74 92h-135v64q402 -3 436 0l377 -1075l412 1075l108 -2h310v-62h-127q-85 0 -82 -90v-1138q0 -89 80 -89h129v-61h-605v61h127q82 0 82 84v1110l-469 -1232h-41l-442 1232v-1108q0 -87 82 -84h127v-63h-504zM1315 1442z" />
<glyph unicode="&#x39d;" horiz-adv-x="1562" d="M78 0h506v57h-127q-82 0 -82 84v1102l868 -1261h70v1314q0 84 82 84h127v60h-506v-60h129q81 0 84 -84v-983l-762 1127q-30 -3 -387 0v-60h127q82 0 82 -86v-1153q0 -84 -82 -84h-129v-57z" />
<glyph unicode="&#x39e;" horiz-adv-x="1329" d="M131 2h1077v379h-57v-117q-6 -82 -88 -82h-793q-77 0 -80 84v115h-59v-379zM170 1126h57v60q0 84 86 84h715q84 0 84 -84v-60h57v314h-999v-314zM309 500h58v90q0 82 84 82h438q84 0 84 -82v-90h59v495h-59v-90q0 -84 -84 -84h-438q-84 0 -84 84v92h-58v-497z" />
<glyph unicode="&#x39f;" horiz-adv-x="1333" d="M90 725q0 -147 43 -282.5t118 -237.5t185 -162.5t236 -60.5q131 0 239 60.5t178 164t109.5 236.5t42.5 282q2 152 -35.5 286t-109.5 235.5t-183.5 160.5t-248.5 59q-159 0 -293 -108.5t-207.5 -278t-73.5 -354.5zM313 733q0 99 6 180t20.5 159t41 135.5t65 102t94.5 67 t128 22.5t128 -21.5t94.5 -65t64 -99.5t40 -134.5t20 -160t5.5 -185.5q0 -101 -5.5 -181.5t-18.5 -162t-38.5 -140.5t-63 -106.5t-94 -71.5t-128.5 -24q-89 0 -154 35.5t-104 94.5t-62 150.5t-31 186t-8 219.5z" />
<glyph unicode="&#x3a0;" horiz-adv-x="1536" d="M94 1378v62h965v-88h-422q-80 0 -148 -2v-1211q0 -86 82 -86h127v-57h-602v57h127q81 0 84 86v1157q0 82 -84 82h-129zM852 -6v57h127q82 0 82 82v901q0 310 -2 406h395v-62h-127q-82 0 -82 -84v-1155q0 -86 82 -86h129v-59h-604z" />
<glyph unicode="&#x3a1;" horiz-adv-x="1243" d="M94 0h604v57h-127q-79 0 -82 78v549q237 -3 357 18q142 25 228.5 122t82.5 257q-9 359 -444 359h-615v-62h121q84 0 84 -86v-1153q0 -82 -80 -82h-129v-57zM492 745v625h198q273 0 285 -291q6 -154 -82.5 -244t-241.5 -90h-159z" />
<glyph unicode="&#x3a3;" horiz-adv-x="1439" d="M123 0h1165l49 516h-69q-11 -77 -22.5 -127t-33.5 -89t-46.5 -59.5t-70 -33t-95.5 -15.5t-130 -2h-503l485 646l-387 534h369q324 0 383 -344h61l-21 416h-1083l498 -699z" />
<glyph unicode="&#x3a4;" horiz-adv-x="1214" d="M96 991h54q25 129 49 193q21 62 61 102q45 49 106.5 66t163.5 22v-1233q0 -42 -22.5 -63t-61.5 -21h-127v-57h605v57h-127q-39 0 -61.5 21t-22.5 63v1237q101 -5 164 -23t108 -67q25 -25 42 -53.5t30 -71.5t19.5 -73.5t19.5 -96.5h53l-8 447h-1039z" />
<glyph unicode="&#x3a5;" horiz-adv-x="1421" d="M70 1272l36 -35q3 10 38 44.5t55 33.5q89 -3 198 -217q194 -376 234 -518v-439q0 -84 -82 -84h-129v-57h604v57h-127q-82 0 -82 84v441q110 281 250 553q83 157 164 157q35 0 69 -24l29 -23l39 27q-25 110 -75.5 152t-115 6t-128.5 -148q-24 -43 -51 -99t-47.5 -102 t-49.5 -115.5t-43 -104.5t-42 -105.5t-34 -85.5q-127 321 -204.5 475t-147.5 229q-30 31 -62.5 50.5t-71 24t-76 -9.5t-76.5 -56t-72 -111z" />
<glyph unicode="&#x3a6;" horiz-adv-x="1435" d="M92 725q0 -240 149.5 -382t376.5 -142v-60q0 -84 -81 -84h-129v-57h604v57h-127q-82 0 -82 84v60q232 0 386 142t154 380q0 142 -74.5 264t-199 193t-266.5 71q-3 0 0 45q0 84 82 84h127v60h-604v-60h129q81 0 81 -84v-45q-137 0 -259.5 -74.5t-194.5 -196t-72 -255.5z M295 711q-1 95 19 178.5t59 149t102 105.5t143 44v-924q-155 0 -238 122.5t-85 324.5zM803 262v926q83 0 147.5 -38.5t104.5 -106t61 -153t23 -185.5q1 -121 -36 -220t-115 -161t-185 -62z" />
<glyph unicode="&#x3a7;" horiz-adv-x="1456" d="M125 0v57q44 0 72 1.5t55 8t42.5 13t34.5 25t30.5 35t31.5 51t36 66t46 86.5t59 106q146 260 152 260l-322 555q-26 42 -73.5 79t-87.5 37h-51v60h606v-60h-113q-35 0 -59.5 -24.5t-24.5 -57.5q0 -22 12 -43l222 -391q260 406 260 461q0 36 -36.5 45.5t-135.5 9.5v60h481 v-60q-176 0 -234 -94l-294 -489l335 -617q28 -50 74.5 -86.5t89.5 -36.5h51v-57h-608v57h113q32 0 58 26t26 60q0 22 -12 43l-234 451l-217 -393q-51 -92 -51 -123q0 -70 157 -64v-57h-491z" />
<glyph unicode="&#x3a8;" horiz-adv-x="1646" d="M45 1411l35 -51q70 26 106.5 -8t36.5 -125q3 -224 15 -307q31 -175 142 -261.5t339 -80.5h24v-437q0 -84 -81 -84h-127v-57h604v57h-129q-82 0 -82 84v439l26 -2q27 -3 56 -3q213 0 319 103q34 34 56.5 73.5t35.5 80t19.5 106.5t8 125t1.5 164q2 91 37.5 123.5 t107.5 11.5l21 49q-100 35 -146 35q-64 0 -118 -42.5t-74 -115.5q-26 -80 -23 -248q1 -86 -7 -147t-29 -112t-58 -81t-94.5 -46.5t-138.5 -16.5v659q0 84 82 84h129v60h-604v-60h127q80 0 83 -84v-659q-100 2 -163.5 26t-99 77t-48.5 122t-14 178q-3 292 -101 365 q-56 41 -120 41q-51 0 -154 -35z" />
<glyph unicode="&#x3a9;" horiz-adv-x="1421" d="M109 883q0 -472 436 -613v-90h-279q-92 0 -92 68q0 3 1 19t1.5 27.5t-0.5 20.5h-49v-315h481v319q-153 95 -210.5 221.5t-57.5 338.5q-1 146 40.5 259.5t130 182t212.5 68.5q113 0 198.5 -73t127 -186.5t41.5 -246.5q0 -397 -252 -564v-319h475v315h-47q-1 -14 -4.5 -43 t-4.5 -45q-15 -41 -92 -41h-262v88q193 62 306 225.5t112 383.5q-1 167 -81 297t-215 199t-302 69q-125 1 -238 -41.5t-196 -116.5t-131.5 -180t-48.5 -227z" />
<glyph unicode="&#x3aa;" horiz-adv-x="749" d="M78 1620q0 -35 26.5 -61.5t61.5 -26.5q33 0 58.5 26.5t25.5 61.5q0 32 -26 58t-58 26q-36 0 -62 -24.5t-26 -59.5zM109 1378h127q78 0 81 -92v-1145q0 -84 -79 -84h-127v-57h602v57h-127q-81 0 -84 84v1155q0 82 84 82h127v62h-604v-62zM573 1620q0 -36 24.5 -62 t59.5 -26t59.5 26t24.5 62q0 33 -24.5 58.5t-59.5 25.5t-59.5 -24.5t-24.5 -59.5z" />
<glyph unicode="&#x3ab;" horiz-adv-x="1263" d="M70 1272l36 -35q3 10 38 44.5t55 33.5q89 -3 198 -217q194 -376 234 -518v-439q0 -84 -82 -84h-129v-57h604v57h-127q-82 0 -82 84v441q110 281 250 553q83 157 164 157q35 0 69 -24l29 -23l39 27q-25 110 -75.5 152t-115 6t-128.5 -148q-24 -43 -51 -99t-47.5 -102 t-49.5 -115.5t-43 -104.5t-42 -105.5t-34 -85.5q-127 321 -204.5 475t-147.5 229q-30 31 -62.5 50.5t-71 24t-76 -9.5t-76.5 -56t-72 -111zM442 1620q0 -35 26.5 -61.5t61.5 -26.5q33 0 58.5 26.5t25.5 61.5q0 32 -26 58t-58 26q-36 0 -62 -24.5t-26 -59.5zM938 1620 q0 -36 24.5 -62t59.5 -26t59.5 26t24.5 62q0 33 -24.5 58.5t-59.5 25.5t-59.5 -24.5t-24.5 -59.5z" />
<glyph unicode="&#x3ac;" d="M86 346q0 101 34 189.5t91 150.5t134.5 97.5t162.5 35.5q129 0 186.5 -69.5t53.5 -217.5l47 273h163l-192 -625q-2 -45 24.5 -75.5t67.5 -30.5q82 0 131 125q17 3 27 0q-5 -59 -28.5 -109.5t-58.5 -79t-73 -28.5q-134 0 -131 139q-70 -77 -133.5 -108t-163.5 -31 q-155 2 -248.5 94.5t-93.5 269.5zM250 295q0 -81 22 -138.5t56.5 -85t78 -35t86 6t80.5 44t62 73.5q59 103 74 315q1 24 1.5 50t-4.5 53.5t-12 53t-21 48.5t-32.5 39.5t-45.5 26.5t-60 10q-101 0 -174.5 -83.5t-98.5 -248.5q-12 -70 -12 -129zM590 1004q12 21 97 208.5 t97 208.5q10 18 31.5 28.5t42.5 10.5q34 0 58 -24t24 -56q0 -15 -4.5 -28.5t-7.5 -19t-15.5 -21.5t-15.5 -21l-240 -286q-64 3 -67 0z" />
<glyph unicode="&#x3ad;" horiz-adv-x="768" d="M45 352q0 -154 111.5 -261t265.5 -107q97 0 131 1.5t75.5 11t78.5 32.5q-3 14 -8.5 41t-8.5 41q-79 -43 -196 -43q-281 0 -281 309h389l14 102h-385q4 65 58 130t127 96q137 58 274 55l12 74q-143 0 -278 -29q-145 -35 -250 -136t-127 -272q-2 -14 -2 -45zM436 1001h68 l239 287q3 3 10 12t9.5 12.5t7.5 11t7 12t4.5 12t3.5 14.5t1 16q0 32 -23.5 56t-57.5 24q-21 0 -42.5 -10.5t-31.5 -28.5q-11 -21 -97 -209t-98 -209z" />
<glyph unicode="&#x3ae;" horiz-adv-x="1024" d="M27 569h36q52 136 144 133q42 0 71 -46t29 -105q0 -15 -4 -43q-88 -375 -133 -506l145 -2l76 373q99 397 287 397q115 0 115 -154q0 -57 -23 -147l-221 -932h78q80 3 80 0q14 64 57.5 271t87 417.5t57.5 274.5q13 63 13 110q0 104 -55 162.5t-148 58.5q-33 0 -78 -10 q-147 -35 -254 -250q5 108 -40.5 182t-129.5 74q-82 1 -121.5 -60.5t-68.5 -197.5zM528 1010h68l240 286q3 4 9.5 12t9.5 11.5t8 11t7 12t4.5 11.5t3.5 14.5t1 15.5q0 32 -24 57t-58 25q-22 0 -43 -11t-31 -30q-12 -21 -98 -208.5t-97 -206.5z" />
<glyph unicode="&#x3af;" horiz-adv-x="538" d="M94 221q10 149 127 590q16 0 39.5 1.5t36 2t27.5 -1t21 -9t10 -21.5t0.5 -37.5t-13.5 -57.5q-111 -386 -111 -506q0 -94 74 -94q104 0 154 158h55q-26 -118 -90.5 -192t-157.5 -74q-79 0 -128.5 62t-43.5 179zM305 1012q51 100 101 215q67 157 92 203q24 38 75 38 q35 0 58.5 -24t23.5 -55q0 -19 -6.5 -35.5t-14 -26t-24.5 -29.5l-239 -286h-66z" />
<glyph unicode="&#x3b0;" horiz-adv-x="897" d="M12 662q55 165 199 165q156 0 156 -153q0 -22 -7 -62q-10 -56 -57 -252q-27 -114 -27 -157q0 -62 41 -101t105 -39q172 0 246 185q74 175 18 379q-9 31 -13.5 50.5t-9 46t-2.5 42.5t9 31.5t23 22.5t40 7q105 0 105 -163q0 -44 -9 -111q-35 -285 -154 -427t-308 -142 q-39 0 -78.5 12.5t-74 37t-56 67t-21.5 96.5q0 77 43 231q41 158 41 223q0 43 -15.5 60.5t-51.5 17.5q-63 0 -97 -67h-45zM213 1141q0 37 29.5 65.5t66.5 28.5q38 0 67.5 -28.5t29.5 -65.5q0 -38 -29.5 -68.5t-67.5 -30.5q-37 0 -66.5 30.5t-29.5 68.5zM463 1006 q11 19 96.5 206.5t97.5 208.5q10 19 32 30t44 11q32 0 57 -25.5t25 -56.5q0 -13 -6 -22q-11 -28 -41 -66l-240 -286h-65zM791 1141q0 38 27.5 66t64.5 28t65.5 -28.5t28.5 -65.5q0 -38 -28.5 -68.5t-65.5 -30.5q-36 0 -64 30t-28 69z" />
<glyph unicode="&#x3b1;" d="M86 346q0 -177 93.5 -269.5t248.5 -94.5q100 0 163.5 31t133.5 108q-3 -139 131 -139q58 0 105.5 63.5t54.5 153.5q-10 3 -27 0q-49 -125 -131 -125q-41 0 -67.5 30.5t-24.5 75.5l192 625h-163l-47 -273q4 148 -53.5 217.5t-186.5 69.5q-175 0 -298.5 -135t-123.5 -338z M250 295q0 59 12 129q25 165 98.5 248.5t174.5 83.5q45 0 79.5 -18.5t52.5 -48.5t30 -67.5t12.5 -75t-0.5 -71.5q-15 -212 -74 -315q-24 -43 -62 -73.5t-80.5 -44t-86 -6t-78 35t-56.5 85t-22 138.5z" />
<glyph unicode="&#x3b2;" d="M-8 -459l63 264q65 277 111 488l162 778q83 393 364 399q48 1 95.5 -8t97 -32t87.5 -59t62.5 -94t26.5 -132q1 -152 -112.5 -263.5t-256.5 -111.5q36 -4 85.5 -35t98 -80.5t82 -123.5t33.5 -152q0 -54 -16 -123q-21 -75 -65.5 -129.5t-103.5 -84.5t-122.5 -44t-134.5 -14 q-34 0 -70 4q-134 21 -246 151q-33 -151 -58 -262t-42 -186t-25.5 -112t-9.5 -36q0 -8 -106 -2zM256 254q39 -74 104.5 -127t126.5 -57q105 -8 194.5 45.5t129.5 177.5q20 61 20 133q0 105 -53 189.5t-143 121.5q-61 -28 -119 -28q-62 0 -86.5 33.5t0 66.5t80.5 33 q78 0 131 -41q133 46 192.5 123.5t71.5 208.5q2 12 2 36q0 113 -63.5 167.5t-159.5 54.5q-47 0 -89 -27t-73 -74t-54 -104.5t-38 -124.5q-25 -100 -174 -807z" />
<glyph unicode="&#x3b3;" horiz-adv-x="1032" d="M51 600q0 -27 2 -41h27q27 76 70.5 105t92 5t89.5 -96q59 -98 102 -275t35 -278q-69 -72 -142 -211.5t-73 -220.5q0 -75 63 -75q53 0 106.5 84.5t84.5 198t31 204.5q99 99 268 350q194 293 194 414q0 63 -71 63q-44 0 -58.5 -24t-34.5 -117q-1 -7 -2 -11.5t-3 -12 t-3 -13.5q-58 -272 -290 -555q0 44 -50 271q-54 241 -125.5 356.5t-162.5 107.5q-150 -12 -150 -229z" />
<glyph unicode="&#x3b4;" horiz-adv-x="933" d="M59 354q-8 -168 88.5 -272.5t264.5 -104.5q208 0 333.5 121t126.5 340q0 64 -18.5 123t-60 120t-81.5 107.5t-110 120.5l-192 178q-158 166 -158 250q0 64 63 64q57 0 174 -66q62 -35 148 -126t133 -162q21 12 27 14q-15 94 -92 203q-79 115 -160.5 158.5t-177.5 43.5 q-196 0 -187 -188q9 -181 328 -473q-111 8 -210.5 -47t-164.5 -162t-74 -242zM217 303q0 123 34 226.5t108.5 170.5t177.5 60q26 -1 66.5 -47.5t71.5 -122.5t27 -144q-8 -191 -81 -301t-205 -110q-86 0 -142.5 77.5t-56.5 190.5z" />
<glyph unicode="&#x3b5;" horiz-adv-x="768" d="M45 352q0 -154 111.5 -261t265.5 -107q97 0 131 1.5t75.5 11t78.5 32.5q-3 14 -8.5 41t-8.5 41q-79 -43 -196 -43q-281 0 -281 309h389l14 102h-385q4 65 58 130t127 96q137 58 274 55l12 74q-143 0 -278 -29q-145 -35 -250 -136t-127 -272q-2 -14 -2 -45z" />
<glyph unicode="&#x3b6;" horiz-adv-x="776" d="M72 231q0 -36 2.5 -65t11 -53.5t17 -42.5t27 -32.5t33.5 -24.5t45 -18t53.5 -12.5t66.5 -8.5t76.5 -6t89.5 -5q160 -6 163 -135q0 -45 -34.5 -74.5t-96.5 -23.5q-76 16 -180 43q-28 4 -41 4q-32 0 -53 -18.5t-21 -53.5q0 -38 41 -65q19 -15 44.5 -22.5t38 -8t40.5 -0.5 q150 0 242 74q63 51 83.5 121.5t0 134t-69.5 104.5q-36 28 -112.5 48t-125 26t-59.5 6q-151 35 -151 207q0 80 41 229q34 126 136 338.5t161 286.5l69 20q83 30 135 82q35 35 35 72q0 28 -20 50t-41 22q-55 1 -129.5 -70t-100.5 -125q-71 -6 -108 63q-6 9 -6 27 q0 83 102 117q10 3 -6 35q-77 -9 -137 -60q-25 -20 -42.5 -50t-22 -62t5 -60.5t43.5 -46.5t88 -18q27 0 51 6q-385 -555 -385 -955z" />
<glyph unicode="&#x3b7;" horiz-adv-x="1024" d="M27 569h36q52 136 144 133q42 0 71 -46t29 -105q0 -15 -4 -43q-88 -375 -133 -506l145 -2l76 373q99 397 287 397q115 0 115 -154q0 -57 -23 -147l-221 -932h78q80 3 80 0q14 64 57.5 271t87 417.5t57.5 274.5q13 63 13 110q0 104 -55 162.5t-148 58.5q-33 0 -78 -10 q-147 -35 -254 -250q5 108 -40.5 182t-129.5 74q-82 1 -121.5 -60.5t-68.5 -197.5z" />
<glyph unicode="&#x3b8;" horiz-adv-x="923" d="M59 379q0 -395 297 -395q78 0 152.5 57.5t130.5 148t102.5 202.5t75 219t41.5 200q21 163 21 274q0 381 -256 381q-173 2 -305.5 -199t-223.5 -603q-35 -158 -35 -285zM203 317q0 183 61 433h412q-60 -360 -138 -539.5t-173 -177.5q-162 0 -162 284zM285 821 q60 305 142 455t187 145q121 -6 121 -237q0 -87 -18 -213q-19 -117 -23 -150h-409z" />
<glyph unicode="&#x3b9;" horiz-adv-x="538" d="M94 221q-6 -117 43.5 -179t128.5 -62q93 0 157.5 74t90.5 192h-55q-50 -158 -154 -158q-74 0 -74 94q0 120 111 506q12 40 13.5 65.5t-1.5 38.5t-19 18t-28 5t-40.5 -2t-45.5 -2q-117 -441 -127 -590z" />
<glyph unicode="&#x3ba;" horiz-adv-x="1015" d="M43 2q55 -3 150 0q3 -3 21.5 81t59.5 282q154 35 183 53q79 -236 188 -381q40 -55 154 -55q109 0 155 34l-14 45q-21 -6 -43 -6q-90 0 -158 121q-105 183 -145 316q11 5 22.5 13t25.5 20t25 21.5t27.5 26.5t25 25.5t26.5 27.5t24 25q38 -10 61 -10q52 0 87.5 26.5 t35.5 71.5q0 36 -23.5 62t-58.5 26q-54 0 -84 -23t-93 -99q-11 -14 -17 -21q-57 -69 -107 -109q-49 -38 -98 -64t-81.5 -38t-98.5 -33q82 346 88 369q-22 -2 -160 2q-118 -546 -178 -809z" />
<glyph unicode="&#x3bb;" horiz-adv-x="1021" d="M23 47q0 -65 65 -65q59 0 100 96q22 56 58.5 154t53.5 141t50.5 113t75.5 141q20 34 80 123q85 -311 180 -574q67 -186 195 -192q66 -3 108 22v53q-80 -3 -127 68q-48 79 -117 299q-10 35 -33 121.5t-38.5 141t-45 140.5t-59 149t-74.5 134.5t-96 128.5 q-118 127 -233 127q2 0 2 -43q60 -28 115 -86q64 -72 124.5 -195.5t79.5 -234.5q-159 -192 -282.5 -383.5t-167.5 -308.5q-14 -38 -14 -70z" />
<glyph unicode="&#x3bc;" horiz-adv-x="1134" d="M2 -375q0 -105 53 -108q72 -1 99.5 81.5t27.5 256.5q2 14 -2 104q-9 132 17 213q14 -102 75.5 -149.5t192.5 -47.5q101 8 156.5 35.5t128.5 118.5q9 -156 116 -156q83 0 154.5 83t83.5 188l-53 4q-58 -131 -133 -131q-87 0 -87 86q0 106 105 485q10 33 13.5 56.5t-1 37 t-10.5 20.5t-21.5 8.5t-28 1t-37 -2.5t-40.5 -2q-81 -367 -123 -567q-6 -34 -22.5 -67.5t-42.5 -64.5t-66.5 -50.5t-89.5 -20.5q-91 0 -137.5 39.5t-44.5 113.5q3 44 34.5 198t62.5 286.5t32 132.5h-164q-171 -768 -182 -815q-66 -299 -66 -367z" />
<glyph unicode="&#x3bd;" horiz-adv-x="897" d="M70 756h125l-72 -779h39q138 70 261.5 156t232.5 197.5t159 220.5q53 118 53 192q0 58 -49 79q-44 19 -82 -9q-41 -30 -35 -96q13 -104 13 -109q0 -27 -10 -65q-43 -137 -181 -248q-218 -161 -252 -176l103 692h-295z" />
<glyph unicode="&#x3be;" horiz-adv-x="872" d="M100 217q0 -69 23 -125t58.5 -92t85 -61t98 -37t100.5 -17q128 -9 131 -84q0 -34 -32.5 -56.5t-90.5 -16.5q-76 16 -180 43q-21 8 -43 8q-30 0 -50 -19.5t-20 -54.5q0 -41 39 -67q20 -14 46.5 -21t39.5 -7.5t45 -0.5q82 0 152.5 23.5t118 74.5t47.5 121q0 73 -52 125 q-48 55 -108 63q-135 24 -196.5 86t-61.5 181q0 216 172 327q50 30 123 39q156 0 239 13q30 6 52 29.5t22 53.5q0 76 -84 76q-35 0 -59 -8.5t-121 -52.5q-70 -34 -96 -37q-80 59 -80 207q0 220 225 295q181 9 225 30q41 21 41 64q0 29 -20 52.5t-43 23.5q-64 -3 -125 -47 q-82 -55 -103 -62q-24 -8 -49 -8q-61 0 -67 51q-6 71 106 131h-39q-114 -16 -153 -83q-29 -50 3 -92q34 -42 105 -42q17 0 37 4q-255 -94 -282 -309q-6 -74 38.5 -149t122.5 -97q-340 -159 -340 -475z" />
<glyph unicode="&#x3bf;" horiz-adv-x="960" d="M84 365q-6 -164 89.5 -266.5t252.5 -114.5q95 -6 180 26.5t145 92.5t97.5 142.5t42.5 174.5q10 189 -84.5 298t-265.5 109q-209 0 -330 -129.5t-127 -332.5zM252 371q3 106 38.5 195.5t104 146t156.5 53.5q59 0 99 -40.5t56.5 -102t16.5 -138.5q0 -99 -25.5 -186 t-66.5 -147q-26 -39 -65 -66t-82.5 -39t-86.5 0t-76.5 46t-52.5 105.5t-16 172.5z" />
<glyph unicode="&#x3c0;" horiz-adv-x="1230" d="M43 549q20 98 95 175t165 77l903 4l-32 -133q-18 2 -234 2q-11 -48 -31 -336q3 -120 -8 -297q-15 -68 -90 -68q-50 0 -72 26.5t-22 86.5q0 21 2 35q38 133 149 555h-317q-18 -68 -74 -346q-15 -108 -45 -256q-10 -34 -25 -55.5t-34 -30.5q-18 -11 -54 -11 q-41 0 -66.5 29.5t-21.5 73.5q6 32 41 98q41 73 84 172t73.5 188t39.5 140q-194 0 -215 -6q-42 -8 -93 -49t-52 -70z" />
<glyph unicode="&#x3c1;" horiz-adv-x="1017" d="M-33 -465v-2q102 2 156 2l119 594q67 -137 252 -149q112 -7 213.5 46.5t168.5 162t72 247.5q10 192 -87.5 291.5t-280.5 99.5q-335 3 -430 -458zM295 252q0 18 4 72q64 444 309 444q76 0 123 -62t47 -176q0 -21 -4 -67q-24 -214 -92 -314t-199 -100q-188 0 -188 203z" />
<glyph unicode="&#x3c2;" horiz-adv-x="851" d="M88 518q0 -152 199 -278l139 -86q71 -50 74 -95q8 -59 -27 -92.5t-90.5 -38t-116.5 7t-106 35.5l-19 -55q92 -54 230 -51q109 5 177 68.5t68 164.5q0 89 -65 154q-6 4 -42 26t-48 30t-46 30t-49.5 34t-43 32.5t-42 35t-32 32.5t-27.5 34.5t-14 32.5q-6 30 -6 55 q0 82 50.5 126t129.5 44q24 0 45.5 -4.5t37.5 -10.5t34 -19t28 -21.5t26 -27.5t22.5 -28t22.5 -32.5t21 -30.5q39 -39 76 -39q39 0 63.5 27t24.5 65q0 71 -75 117q-115 71 -250 74q-65 3 -128 -14.5t-118 -53.5t-89 -100.5t-34 -147.5z" />
<glyph unicode="&#x3c3;" horiz-adv-x="1077" d="M66 365q0 -179 114 -287q66 -63 167 -87.5t215.5 3t201.5 108.5q89 82 124.5 193.5t8 227t-116.5 204.5q193 -30 277 6l4 119q-31 -11 -78 -17.5t-112.5 -8t-111 -1.5t-125 2t-104.5 2q-203 0 -333.5 -131t-130.5 -333zM242 313q0 38 2 56q9 99 26 166t49.5 121t86.5 80 t133 26q196 0 196 -279q0 -42 -2 -69q-14 -220 -130 -317q-84 -71 -183 -48q-93 21 -142 111q-36 66 -36 153z" />
<glyph unicode="&#x3c4;" horiz-adv-x="962" d="M39 559h61q5 33 48 69.5t98 49.5q16 4 254 4q-58 -194 -107 -326q-58 -135 -59 -139q-41 -91 -47 -139q-6 -44 19.5 -72.5t68.5 -28.5q38 0 53 9q36 22 57 86q24 169 31 252q49 300 64 358h340l32 129h-653q-100 0 -169 -77t-91 -175z" />
<glyph unicode="&#x3c5;" horiz-adv-x="897" d="M12 664h45q35 65 97 65q36 0 51.5 -17.5t15.5 -60.5q0 -65 -41 -223q-43 -154 -43 -231q0 -54 21.5 -96.5t56 -67t74 -37t78.5 -12.5q189 0 308 142t154 427q9 67 9 111q0 163 -105 163q-24 0 -40 -7t-23 -22.5t-9 -31.5t2.5 -42.5t9 -46t13.5 -50.5q56 -204 -18 -379 q-74 -185 -246 -185q-64 0 -105 39t-41 101q0 43 27 157q47 196 57 252q7 40 7 62q0 153 -156 153q-144 0 -199 -163z" />
<glyph unicode="&#x3c6;" horiz-adv-x="1247" d="M61 352q0 9 5 54q13 92 59.5 167.5t108.5 122t137.5 78t146 43.5t135.5 10q49 249 99 510q9 52 63 52q55 0 55 -58q0 -14 -2 -22l-112 -484q60 2 123.5 -13t122.5 -48.5t104.5 -81t70 -116t17.5 -148.5q-13 -204 -174.5 -318t-433.5 -114q0 -10 -113 -469h-65l96 469 q-183 0 -313 104.5t-130 261.5zM225 330q0 -133 80 -208t207 -77q122 690 133 719q-163 2 -276.5 -95.5t-137.5 -271.5q-6 -35 -6 -67zM596 47q360 0 424 359q6 38 6 73q0 127 -74 207t-207 80z" />
<glyph unicode="&#x3c7;" horiz-adv-x="1056" d="M39 -434q0 -49 43 -49q40 0 57.5 19.5t66.5 115.5q2 5 3.5 7.5t3.5 6.5l4 8q61 113 129 211q141 185 158 205q114 -365 143 -434q61 -141 166 -141q109 0 221 139l-30 33q-65 -74 -115 -74q-15 0 -27 6q-65 41 -235 592q187 220 256 313q87 120 114 181q25 58 25 79 q0 19 -13 31t-32 12q-50 0 -84 -63l-148 -281q-66 -112 -141 -202q-106 350 -129 411q-59 139 -168 139t-221 -139l29 -33q70 70 118 70q17 0 29 -6q78 -50 221 -567l-256 -273q-125 -155 -172 -258q-16 -32 -16 -59z" />
<glyph unicode="&#x3c8;" horiz-adv-x="1251" d="M68 299q0 -64 26 -117q102 -196 383 -196l-90 -445q0 -3 70 0q104 432 104 441q25 -5 51 -5q71 0 140.5 14t138 43.5t125 83t88.5 124.5q35 75 35 139q0 61 -33 151q-34 93 -37 142q47 -30 123 4q33 14 33 72q0 40 -29.5 63t-77.5 23t-78.5 -24.5t-45 -75t-19 -103 t-4.5 -133.5q-3 -143 -21 -217q-58 -240 -327 -240h-48l291 1350q2 6 2 16q0 59 -61 59q-48 0 -57 -49q-255 -1373 -258 -1370q-117 0 -185.5 56t-68.5 159q0 67 47 182q28 68 43.5 128t17.5 118t-27 95.5t-88 43.5q-44 4 -80.5 -15.5t-41.5 -49.5q-5 -39 24 -70.5t88 -31.5 q23 0 37 2q-3 -52 -65 -123q-80 -94 -102.5 -138.5t-22.5 -105.5z" />
<glyph unicode="&#x3c9;" horiz-adv-x="1433" d="M70 307q-6 -146 71 -235.5t205 -89.5q131 0 212.5 53t135.5 174q42 -134 113 -183t192 -49q164 0 267 119.5t108 286.5q3 270 -182 424q-23 20 -55 31l-19 -35q49 -35 68.5 -103.5t19.5 -179.5q0 -100 -12 -174q-58 -289 -225 -289q-56 0 -95 13.5t-60.5 40t-32 55 t-17.5 70.5q102 199 115 299q17 135 -103 135q-53 0 -85 -33.5t-43 -89.5t-14.5 -128.5t1.5 -150.5q-18 -94 -81 -151.5t-138 -57.5q-172 0 -172 199v33q7 77 23.5 139t36 105t57.5 89t69 75t88 79q20 16 23 17q-15 35 -17 41q-22 -9 -35 -11q-180 -57 -296 -199t-123 -319z " />
<glyph unicode="&#x3ca;" horiz-adv-x="538" d="M51 1247q0 -38 29 -67t67 -29t66.5 29t28.5 67q0 37 -28.5 64.5t-66.5 27.5q-39 0 -67.5 -27t-28.5 -65zM94 221q-6 -117 43.5 -179t128.5 -62q93 0 157.5 74t90.5 192h-55q-50 -158 -154 -158q-74 0 -74 94q0 120 111 506q12 40 13.5 65.5t-1.5 38.5t-19 18t-28 5 t-40.5 -2t-45.5 -2q-117 -441 -127 -590zM524 1247q0 -38 27.5 -67t64.5 -29q38 0 67.5 29t29.5 67q0 37 -29.5 64.5t-67.5 27.5q-37 0 -64.5 -27t-27.5 -65z" />
<glyph unicode="&#x3cb;" horiz-adv-x="897" d="M12 664h45q35 65 97 65q36 0 51.5 -17.5t15.5 -60.5q0 -65 -41 -223q-43 -154 -43 -231q0 -54 21.5 -96.5t56 -67t74 -37t78.5 -12.5q189 0 308 142t154 427q9 67 9 111q0 163 -105 163q-24 0 -40 -7t-23 -22.5t-9 -31.5t2.5 -42.5t9 -46t13.5 -50.5q56 -204 -18 -379 q-74 -185 -246 -185q-64 0 -105 39t-41 101q0 43 27 157q47 196 57 252q7 40 7 62q0 153 -156 153q-144 0 -199 -163zM217 1247q0 -38 29 -67t67 -29t66.5 29t28.5 67q0 37 -28.5 64.5t-66.5 27.5q-39 0 -67.5 -27t-28.5 -65zM692 1247q0 -39 27 -67.5t65 -28.5q37 0 66 29 t29 67q0 36 -29 64t-66 28q-38 0 -65 -27t-27 -65z" />
<glyph unicode="&#x3cc;" horiz-adv-x="960" d="M84 365q3 99 35 183t88.5 146t142.5 97.5t191 35.5q171 0 265.5 -109t84.5 -298q-5 -92 -42.5 -174.5t-97.5 -142.5t-145 -92.5t-180 -26.5q-157 12 -252.5 114.5t-89.5 266.5zM252 371q-3 -76 8 -136t31 -97t47.5 -61t59 -31t64.5 -3t64 19t58.5 38t46.5 52 q41 60 66.5 147t25.5 186q0 57 -10 106t-30 89t-53.5 63t-78.5 23q-53 2 -100 -18.5t-82 -58t-61 -88t-40 -109.5t-16 -121zM582 999q8 16 51.5 112t87 191.5t53.5 114.5q12 18 33.5 28.5t42.5 10.5q34 0 58 -24t24 -56q0 -10 -2 -19t-3.5 -14t-8 -15t-8 -12.5t-11.5 -15 t-12 -14.5l-240 -287q-59 3 -65 0z" />
<glyph unicode="&#x3cd;" horiz-adv-x="897" d="M12 662q55 165 199 165q156 0 156 -153q0 -22 -7 -62q-10 -56 -57 -252q-27 -114 -27 -157q0 -62 41 -101t105 -39q172 0 246 185q74 175 18 379q-9 31 -13.5 50.5t-9 46t-2.5 42.5t9 31.5t23 22.5t40 7q105 0 105 -163q0 -44 -9 -111q-35 -285 -154 -427t-308 -142 q-39 0 -78.5 12.5t-74 37t-56 67t-21.5 96.5q0 77 43 231q41 158 41 223q0 43 -15.5 60.5t-51.5 17.5q-63 0 -97 -67h-45zM508 1012q9 18 94.5 206.5t97.5 211.5q11 18 32.5 28t43.5 10q34 0 58 -24t24 -55q0 -11 -4 -27q-12 -27 -41 -64l-240 -286h-65z" />
<glyph unicode="&#x3ce;" horiz-adv-x="1433" d="M70 307q7 177 123 319t296 199q13 2 35 11q2 -6 17 -41q-3 -1 -23 -17q-57 -50 -88 -79t-69 -75t-57.5 -89t-36 -105t-23.5 -139v-33q0 -199 172 -199q75 0 138 57.5t81 151.5q-5 78 -1.5 150.5t14.5 128.5t43 89.5t85 33.5q210 0 -4 -418q-1 -3 -5 -9q-2 -5 -3 -7 q7 -42 17.5 -70.5t32 -55t60.5 -40t95 -13.5q167 0 225 289q12 73 12 174q0 111 -19.5 179.5t-68.5 103.5l19 35q32 -11 55 -31q185 -154 182 -424q-5 -167 -108 -286.5t-267 -119.5q-121 0 -192 49t-113 183q-54 -121 -135.5 -174t-212.5 -53q-128 0 -205 89.5t-71 235.5z M821 1006q12 21 97.5 208.5t97.5 208.5q10 18 32 28.5t44 10.5q32 0 57 -24.5t25 -55.5q0 -9 -5 -24q-11 -24 -41 -66l-239 -286q-65 3 -68 0z" />
<glyph unicode="&#x3da;" horiz-adv-x="1251" d="M43 481q0 -60 6.5 -109.5t21.5 -90t33.5 -72.5t48.5 -57.5t60 -44.5t74.5 -33t85 -24t98.5 -17.5t109 -11.5t122 -9q232 -15 232 -102q0 -42 -31.5 -70t-75.5 -28q-23 0 -117.5 16t-117.5 16q-139 0 -139 -82q0 -34 29.5 -54.5t68.5 -20.5q422 0 422 219q0 203 -230 233 l-430 31q-231 46 -231 293q0 81 23.5 137.5t64 91t110 54t147 26t189.5 6.5h56q238 0 325 37q142 53 136 215l-3 23q-110 -76 -251 -76q-96 0 -170 -2.5t-151 -9t-134 -18.5t-113.5 -31t-95.5 -45.5t-73.5 -63.5t-55 -84.5t-32 -107.5t-11.5 -134z" />
<glyph unicode="&#x3db;" horiz-adv-x="1370" d="M45 743q0 -106 14.5 -187t41.5 -142.5t73.5 -104.5t102.5 -71t137.5 -44t169.5 -22t207 -6q54 0 108 -13t95.5 -42.5t41.5 -67.5q0 -48 -29.5 -84.5t-72.5 -36.5q-20 0 -101.5 17.5t-103.5 17.5q-137 0 -137 -98q0 -101 135 -101q107 0 191.5 25.5t139 85.5t54.5 147 q0 231 -262 258q-410 30 -485 35q-265 65 -265 383q0 103 26.5 178.5t73.5 123t122 75.5t161 38.5t203 10.5h117q51 -2 115 -2q215 0 309 51t84 193l-4 49q-125 -78 -267 -78q-360 0 -462 -12q-130 -14 -225.5 -50t-166 -103t-106 -172.5t-35.5 -250.5z" />
<glyph unicode="&#x3e0;" horiz-adv-x="1445" d="M-4 1151l4 -33q528 0 780 -252l-549 -444l37 -41l553 446q128 -152 172 -252l-540 -440l36 -43l529 436q104 -253 104 -606v-98h105l4 133q7 261 -63 481.5t-206 380.5t-343 250t-463 90q-92 0 -160 -8z" />
<glyph unicode="&#x1f00;" d="M86 346q0 -177 93.5 -269.5t248.5 -94.5q100 0 163.5 31t133.5 108q-3 -139 131 -139q58 0 105.5 63.5t54.5 153.5q-10 3 -27 0q-49 -125 -131 -125q-41 0 -67.5 30.5t-24.5 75.5l192 625h-163l-47 -273q4 148 -53.5 217.5t-186.5 69.5q-175 0 -298.5 -135t-123.5 -338z M250 295q0 59 12 129q25 165 98.5 248.5t174.5 83.5q45 0 79.5 -18.5t52.5 -48.5t30 -67.5t12.5 -75t-0.5 -71.5q-15 -212 -74 -315q-24 -43 -62 -73.5t-80.5 -44t-86 -6t-78 35t-56.5 85t-22 138.5zM627 1363q4 -37 39 -60q80 -28 116 -31q19 -10 19 -35q0 -20 -10 -43 q-41 -71 -138 -74q-4 -36 -4 -57q8 -2 29 -2q89 0 164.5 57t75.5 144q0 4 -5 34q-18 68 -72.5 115t-121.5 47q-44 0 -70 -29t-22 -66z" />
<glyph unicode="&#x1f01;" d="M86 346q0 -177 93.5 -269.5t248.5 -94.5q100 0 163.5 31t133.5 108q-3 -139 131 -139q58 0 105.5 63.5t54.5 153.5q-10 3 -27 0q-49 -125 -131 -125q-41 0 -67.5 30.5t-24.5 75.5l192 625h-163l-47 -273q4 148 -53.5 217.5t-186.5 69.5q-175 0 -298.5 -135t-123.5 -338z M250 295q0 59 12 129q25 165 98.5 248.5t174.5 83.5q45 0 79.5 -18.5t52.5 -48.5t30 -67.5t12.5 -75t-0.5 -71.5q-15 -212 -74 -315q-24 -43 -62 -73.5t-80.5 -44t-86 -6t-78 35t-56.5 85t-22 138.5zM555 1251q0 -84 61 -137t148 -53q12 0 16 2q3 15 0 55q-118 18 -127 86 q-5 47 11 60t66 19q6 1 9 1q57 6 91 30.5t22 80.5q-15 70 -109 67q-73 -6 -130.5 -63.5t-57.5 -147.5z" />
<glyph unicode="&#x1f02;" d="M86 346q0 -177 93.5 -269.5t248.5 -94.5q100 0 163.5 31t133.5 108q-3 -139 131 -139q58 0 105.5 63.5t54.5 153.5q-10 3 -27 0q-49 -125 -131 -125q-41 0 -67.5 30.5t-24.5 75.5l192 625h-163l-47 -273q4 148 -53.5 217.5t-186.5 69.5q-175 0 -298.5 -135t-123.5 -338z M250 295q0 59 12 129q25 165 98.5 248.5t174.5 83.5q45 0 79.5 -18.5t52.5 -48.5t30 -67.5t12.5 -75t-0.5 -71.5q-15 -212 -74 -315q-24 -43 -62 -73.5t-80.5 -44t-86 -6t-78 35t-56.5 85t-22 138.5zM281 1309q0 -76 106 -76q19 0 27 2q20 2 37.5 -17t17.5 -42 q0 -51 -33 -84q-9 -15 -59 -45l24 -33q69 21 114.5 79t45.5 132q0 76 -59.5 127t-141.5 51q-35 0 -57 -28.5t-22 -65.5zM598 1395q0 -37 25 -68q83 -101 145.5 -175.5t90.5 -107.5t28 -32h53q-173 388 -207 428q-21 24 -69 24q-32 0 -49 -19t-17 -50z" />
<glyph unicode="&#x1f03;" d="M86 346q0 -177 93.5 -269.5t248.5 -94.5q100 0 163.5 31t133.5 108q-3 -139 131 -139q58 0 105.5 63.5t54.5 153.5q-10 3 -27 0q-49 -125 -131 -125q-41 0 -67.5 30.5t-24.5 75.5l192 625h-163l-47 -273q4 148 -53.5 217.5t-186.5 69.5q-175 0 -298.5 -135t-123.5 -338z M250 295q0 59 12 129q25 165 98.5 248.5t174.5 83.5q45 0 79.5 -18.5t52.5 -48.5t30 -67.5t12.5 -75t-0.5 -71.5q-15 -212 -74 -315q-24 -43 -62 -73.5t-80.5 -44t-86 -6t-78 35t-56.5 85t-22 138.5zM274 1225q0 -71 46 -130t116 -79l23 33q-54 37 -73 60t-19 69 q0 24 17.5 43.5t37.5 15.5q8 -2 27 -2q106 0 106 78q0 35 -22 63.5t-58 28.5q-81 0 -141 -52t-60 -128zM614 1397q0 -38 27 -68q81 -99 144 -175t90.5 -108.5t27.5 -31.5h53q-174 391 -206 428q-21 24 -68 24q-34 0 -51 -19t-17 -50z" />
<glyph unicode="&#x1f04;" d="M86 346q0 -177 93.5 -269.5t248.5 -94.5q100 0 163.5 31t133.5 108q-3 -139 131 -139q58 0 105.5 63.5t54.5 153.5q-10 3 -27 0q-49 -125 -131 -125q-41 0 -67.5 30.5t-24.5 75.5l192 625h-163l-47 -273q4 148 -53.5 217.5t-186.5 69.5q-175 0 -298.5 -135t-123.5 -338z M250 295q0 59 12 129q25 165 98.5 248.5t174.5 83.5q45 0 79.5 -18.5t52.5 -48.5t30 -67.5t12.5 -75t-0.5 -71.5q-15 -212 -74 -315q-24 -43 -62 -73.5t-80.5 -44t-86 -6t-78 35t-56.5 85t-22 138.5zM504 1300q0 -75 108 -75h25q19 4 37 -16.5t18 -41.5q1 -47 -17.5 -70.5 t-72.5 -58.5l23 -34q70 24 114.5 81t44.5 129q0 76 -59 128.5t-139 52.5q-36 0 -59 -30t-23 -65zM788 1001q51 0 54 3q0 -2 28 30.5t90 107.5t144 177q26 29 26 67q0 31 -16.5 50.5t-50.5 19.5q-47 0 -68 -24q-34 -43 -207 -431z" />
<glyph unicode="&#x1f05;" d="M86 346q0 -177 93.5 -269.5t248.5 -94.5q100 0 163.5 31t133.5 108q-3 -139 131 -139q58 0 105.5 63.5t54.5 153.5q-10 3 -27 0q-49 -125 -131 -125q-41 0 -67.5 30.5t-24.5 75.5l192 625h-163l-47 -273q4 148 -53.5 217.5t-186.5 69.5q-175 0 -298.5 -135t-123.5 -338z M250 295q0 59 12 129q25 165 98.5 248.5t174.5 83.5q45 0 79.5 -18.5t52.5 -48.5t30 -67.5t12.5 -75t-0.5 -71.5q-15 -212 -74 -315q-24 -43 -62 -73.5t-80.5 -44t-86 -6t-78 35t-56.5 85t-22 138.5zM524 1251q-10 -39 0.5 -84t32.5 -73q24 -28 61 -54t62 -34l25 32 q-27 15 -44.5 28.5t-33 40.5t-15.5 60q0 22 17 43t39 17q48 -11 90.5 10.5t42.5 65.5q0 34 -21 63t-59 29q-74 0 -128.5 -41.5t-68.5 -102.5zM788 1004h54q0 -2 17 17q8 9 20 23l170 207q44 57 55 68q24 28 26 63t-16 54q-25 23 -62 19.5t-57 -23.5q-23 -26 -100 -195 q-90 -187 -107 -233z" />
<glyph unicode="&#x1f06;" d="M86 346q0 -177 93.5 -269.5t248.5 -94.5q100 0 163.5 31t133.5 108q-3 -139 131 -139q58 0 105.5 63.5t54.5 153.5q-10 3 -27 0q-49 -125 -131 -125q-41 0 -67.5 30.5t-24.5 75.5l192 625h-163l-47 -273q4 148 -53.5 217.5t-186.5 69.5q-175 0 -298.5 -135t-123.5 -338z M250 295q0 59 12 129q25 165 98.5 248.5t174.5 83.5q45 0 79.5 -18.5t52.5 -48.5t30 -67.5t12.5 -75t-0.5 -71.5q-15 -212 -74 -315q-24 -43 -62 -73.5t-80.5 -44t-86 -6t-78 35t-56.5 85t-22 138.5zM305 1225h55q74 139 246 139q204 0 254 -139h58q0 47 -56 121 q-88 114 -258 114q-214 0 -299 -235zM483 1157q0 -78 109 -78q18 0 24 2q20 4 38 -15.5t18 -43.5q0 -46 -19 -69t-73 -60l24 -33q70 24 115 81.5t45 129.5q0 76 -59.5 127t-139.5 51q-36 0 -59 -28.5t-23 -63.5z" />
<glyph unicode="&#x1f07;" d="M86 346q0 -177 93.5 -269.5t248.5 -94.5q100 0 163.5 31t133.5 108q-3 -139 131 -139q58 0 105.5 63.5t54.5 153.5q-10 3 -27 0q-49 -125 -131 -125q-41 0 -67.5 30.5t-24.5 75.5l192 625h-163l-47 -273q4 148 -53.5 217.5t-186.5 69.5q-175 0 -298.5 -135t-123.5 -338z M250 295q0 59 12 129q25 165 98.5 248.5t174.5 83.5q45 0 79.5 -18.5t52.5 -48.5t30 -67.5t12.5 -75t-0.5 -71.5q-15 -212 -74 -315q-24 -43 -62 -73.5t-80.5 -44t-86 -6t-78 35t-56.5 85t-22 138.5zM309 1227h58q73 141 245 141q202 0 254 -141h58q0 50 -56 121 q-88 114 -258 114q-213 0 -301 -235zM455 1083q0 -71 44 -128t113 -81l25 33q-54 37 -72.5 60t-17.5 69q0 24 17.5 44t37.5 16q6 -2 25 -2q108 0 108 77q0 35 -23 64.5t-59 30.5q-83 0 -140.5 -51.5t-57.5 -131.5z" />
<glyph unicode="&#x1f08;" horiz-adv-x="1406" d="M13 1373.5q5 -37.5 40 -60.5q80 -28 115 -31q20 -6 20 -35q0 -20 -12 -41q-40 -70 -135 -73q-6 -27 -6 -58q16 -4 31 -4q101 0 170 56t69 145q0 91 -58 145.5t-141 52.5q-46 0 -72 -29.5t-21 -67zM43 0h489v63q-198 0 -198 82q0 16 6 31q94 303 96 305h416l88 -291 q6 -18 6 -34q0 -38 -24.5 -65.5t-57.5 -27.5h-135v-63h619v63h-72q-31 0 -67 26t-46 58q-12 33 -51.5 143t-51.5 144t-50.5 145t-70.5 211t-87 272t-125 394h-61l-390 -1194q-64 -196 -210 -196q-19 0 -23 2v-68zM463 561l182 572l180 -572h-362z" />
<glyph unicode="&#x1f09;" horiz-adv-x="1411" d="M0 1255q0 -83 62 -135.5t149 -52.5h16q3 15 0 57q-121 18 -127 86q-7 47 12 60t74 18q132 14 111 113q-12 71 -107 65q-73 -6 -131.5 -64t-58.5 -147zM47 0h490v63q-199 0 -199 82q0 16 6 31q94 303 96 305h416l88 -291q6 -18 6 -34q0 -38 -24.5 -65.5t-57.5 -27.5h-135 v-63h619v63h-72q-31 0 -67 26t-46 58q-12 33 -51.5 143t-51.5 144t-50.5 145t-70.5 211t-87 272t-125 394h-61l-389 -1194q-64 -196 -211 -196q-19 0 -23 2v-68zM467 561l182 572l180 -572h-362z" />
<glyph unicode="&#x1f0a;" horiz-adv-x="1730" d="M0 1313q0 -76 109 -76q16 0 24 2q20 2 37.5 -17t17.5 -42q3 -49 -32 -84q-7 -12 -58 -45l23 -33q70 21 115 78.5t45 130.5q0 78 -59.5 129t-141.5 51q-35 0 -57.5 -28.5t-22.5 -65.5zM317 1399q0 -38 27 -68q81 -99 144 -175t90.5 -108.5t27.5 -31.5h53 q-174 388 -206 428q-21 24 -68 24q-68 0 -68 -69zM367 0h489v63q-199 0 -199 82q0 13 7 31q94 303 96 305h416l88 -291q6 -18 6 -34q0 -38 -24.5 -65.5t-57.5 -27.5h-135v-63h618v63h-72q-31 0 -66.5 26t-45.5 58q-12 33 -51.5 143t-51.5 144t-50.5 145t-70.5 211t-87 272 t-125 394h-62l-389 -1194q-64 -196 -211 -196q-18 0 -22 2v-68zM786 561l183 572l180 -572h-363z" />
<glyph unicode="&#x1f0b;" horiz-adv-x="1757" d="M0 1225q0 -72 45.5 -129.5t116.5 -81.5l22 33q-54 37 -73 60t-19 69q0 24 17.5 43.5t37.5 15.5q8 -2 27 -2q107 0 107 78q0 35 -22 63.5t-58 28.5q-82 0 -141.5 -51t-59.5 -127zM340 1395q0 -38 27 -68q81 -99 144 -175t90.5 -108.5t27.5 -31.5h53q-173 388 -207 428 q-20 26 -67 26q-34 0 -51 -19.5t-17 -51.5zM393 0h490v63q-199 0 -199 82q0 16 6 31q94 303 96 305h416l88 -291q6 -18 6 -34q0 -38 -24.5 -65.5t-57.5 -27.5h-135v-63h619v63h-72q-31 0 -67 26t-46 58q-12 33 -51.5 143t-51.5 144t-50.5 145t-70.5 211t-87 272t-125 394 h-61l-389 -1194q-64 -196 -211 -196q-19 0 -23 2v-68zM813 561l182 572l181 -572h-363z" />
<glyph unicode="&#x1f0c;" horiz-adv-x="1695" d="M0 1305q0 -78 106 -78q19 0 27 2q19 4 36 -16t17 -42q1 -47 -17.5 -70.5t-72.5 -58.5l23 -34q70 24 115 81.5t45 129.5q0 77 -59 128.5t-140 51.5q-36 0 -58 -29.5t-22 -64.5zM283 1006q53 0 55 2q0 -2 28 30.5t90 107.5t144 177q25 31 25 68q0 69 -66 69q-46 0 -67 -24 q-36 -42 -209 -430zM332 0h489v63q-198 0 -198 82q0 16 6 31q94 303 96 305h416l88 -291q6 -18 6 -34q0 -38 -24.5 -65.5t-57.5 -27.5h-135v-63h618v63h-71q-31 0 -67 26t-46 58q-12 33 -51.5 143t-51.5 144t-50.5 145t-70.5 211t-87 272t-125 394h-62l-389 -1194 q-64 -196 -211 -196q-18 0 -22 2v-68zM752 561l182 572l180 -572h-362z" />
<glyph unicode="&#x1f0d;" horiz-adv-x="1681" d="M4 1251q-10 -39 0.5 -84t32.5 -73q24 -28 61 -54t62 -34l24 32q-41 23 -66.5 52.5t-25.5 76.5q0 22 16.5 43t38.5 17q32 -6 61.5 -0.5t51 26.5t21.5 50q0 34 -21 63t-59 29q-74 0 -128.5 -41.5t-68.5 -102.5zM268 1004h54q0 -1 6.5 6t29.5 34l170 207q41 52 56 68 q24 28 26 63t-16 54q-25 23 -62 19.5t-57 -23.5q-23 -26 -100 -195q-90 -187 -107 -233zM317 0h490v63q-199 0 -199 82q0 16 6 31q94 302 97 305h415l88 -291q7 -21 7 -34q0 -38 -24.5 -65.5t-57.5 -27.5h-135v-63h618v63h-72q-31 0 -66.5 26t-45.5 58q-16 44 -52 144 t-51 142t-51.5 147.5t-70 208.5t-88.5 274.5t-124 392.5h-61l-389 -1194q-64 -196 -211 -196q-19 0 -23 2v-68zM737 561l183 572l180 -572h-363z" />
<glyph unicode="&#x1f0e;" horiz-adv-x="1712" d="M0 1229h57q71 141 244 141q203 0 256 -141h55q0 51 -55 121q-88 116 -256 116q-213 0 -301 -237zM180 1163q0 -80 107 -80q10 0 26 4q20 4 38 -15.5t18 -43.5q0 -46 -19.5 -70t-73.5 -59l25 -33q69 21 114.5 79t45.5 130q0 76 -60 128t-141 52q-36 0 -58 -28.5t-22 -63.5 zM348 0h490v63q-199 0 -199 82q0 16 6 31q94 303 96 305h416l88 -291q6 -18 6 -34q0 -38 -24.5 -65.5t-57.5 -27.5h-135v-63h619v63h-72q-31 0 -67 26t-46 58q-12 33 -51.5 143t-51.5 144t-50.5 145t-70.5 211t-87 272t-125 394h-61l-389 -1194q-64 -196 -211 -196 q-19 0 -23 2v-68zM768 561l182 572l180 -572h-362z" />
<glyph unicode="&#x1f0f;" horiz-adv-x="1718" d="M0 1227h57q73 141 246 141q201 0 254 -141h57q0 51 -55 121q-89 114 -258 114q-213 0 -301 -235zM145 1083q0 -71 44.5 -128t113.5 -81l25 33q-54 37 -72.5 60t-17.5 69q0 24 17.5 44t37.5 16q6 -2 24 -2q109 0 109 77q0 35 -23 64.5t-59 30.5q-83 0 -141 -51.5 t-58 -131.5zM354 0h490v63q-199 0 -199 82q0 16 6 31q94 302 97 305h415l88 -291q6 -18 6 -34q0 -38 -24.5 -65.5t-56.5 -27.5h-136v-63h619v63h-72q-31 0 -66.5 26t-45.5 58q-16 44 -52 144t-51 142t-51.5 147.5t-70 208.5t-88.5 274.5t-124 392.5h-61l-389 -1194 q-64 -196 -211 -196q-19 0 -23 2v-68zM774 561l182 572l181 -572h-363z" />
<glyph unicode="&#x1f10;" horiz-adv-x="768" d="M45 352q0 -154 111.5 -261t265.5 -107q97 0 131 1.5t75.5 11t78.5 32.5q-3 14 -8.5 41t-8.5 41q-79 -43 -196 -43q-281 0 -281 309h389l14 102h-385q4 65 58 130t127 96q137 58 274 55l12 74q-143 0 -278 -29q-145 -35 -250 -136t-127 -272q-2 -14 -2 -45zM460.5 1369.5 q4.5 -37.5 37.5 -60.5q80 -28 116 -31q19 -6 19 -33q0 -20 -10 -43q-41 -71 -136 -74q-6 -27 -6 -57q16 -4 29 -4q88 0 164 57.5t76 143.5q0 7 -5 37q-18 69 -72 115t-122 46q-44 0 -69.5 -29.5t-21 -67z" />
<glyph unicode="&#x1f11;" horiz-adv-x="768" d="M45 352q0 -101 51.5 -186t138.5 -133.5t187 -48.5h18q119 0 167.5 7t99.5 38q-3 13 -8.5 40.5t-8.5 41.5q-79 -43 -196 -43q-281 0 -281 309h389l14 102h-385q3 43 29 88t67 81.5t89 56.5q137 58 274 55l12 74q-143 0 -278 -29q-54 -13 -102.5 -34.5t-95.5 -56t-83 -79 t-61.5 -105.5t-34.5 -133q-2 -14 -2 -45zM463 1245q0 -83 61 -135.5t148 -52.5h16q3 15 0 57q-118 18 -127 86q-6 47 12.5 60t73.5 18q134 14 113 113q-15 71 -109 65q-74 -6 -131 -63.5t-57 -147.5z" />
<glyph unicode="&#x1f12;" horiz-adv-x="768" d="M45 352q0 -154 111.5 -261t265.5 -107q97 0 131 1.5t75.5 11t78.5 32.5q-3 14 -8.5 41t-8.5 41q-79 -43 -196 -43q-281 0 -281 309h389l14 102h-385q4 65 58 130t127 96q137 58 274 55l12 74q-143 0 -278 -29q-145 -35 -250 -136t-127 -272q-2 -14 -2 -45zM131 1317 q0 -78 109 -78q18 0 24 2q19 4 37 -16t18 -41q1 -33 -9.5 -56t-27 -37t-53.5 -38l23 -33q70 21 115 79t45 132q0 76 -59 127t-140 51q-36 0 -59 -28.5t-23 -63.5zM449 1401q0 -39 26 -68q87 -105 146.5 -176.5t88.5 -105t29 -31.5q0 -3 52 0q-171 387 -207 426 q-21 24 -68 24q-32 0 -49.5 -19t-17.5 -50z" />
<glyph unicode="&#x1f13;" horiz-adv-x="768" d="M45 352q0 -154 111.5 -261t265.5 -107q97 0 131 1.5t75.5 11t78.5 32.5q-3 14 -8.5 41t-8.5 41q-79 -43 -196 -43q-281 0 -281 309h389l14 102h-385q4 65 58 130t127 96q137 58 274 55l12 74q-143 0 -278 -29q-145 -35 -250 -136t-127 -272q-2 -14 -2 -45zM109 1221 q0 -71 45.5 -130t113.5 -79l25 32q-54 37 -73 60.5t-19 69.5q0 24 17.5 43.5t37.5 15.5q8 -2 27 -2q106 0 106 78q0 35 -22.5 63.5t-57.5 28.5q-81 0 -140.5 -51.5t-59.5 -128.5zM449 1393q0 -38 24 -68q81 -99 144 -175t90.5 -108.5t27.5 -31.5h56q-174 390 -209 428 q-21 24 -68 24q-65 0 -65 -69z" />
<glyph unicode="&#x1f14;" horiz-adv-x="768" d="M45 352q0 -154 111.5 -261t265.5 -107q97 0 131 1.5t75.5 11t78.5 32.5q-3 14 -8.5 41t-8.5 41q-79 -43 -196 -43q-281 0 -281 309h389l14 102h-385q4 65 58 130t127 96q137 58 274 55l12 74q-143 0 -278 -29q-145 -35 -250 -136t-127 -272q-2 -14 -2 -45zM201 1307 q0 -76 108 -76h25q19 4 37 -16t18 -41q1 -47 -17.5 -71t-72.5 -59l23 -34q70 24 114.5 81.5t44.5 129.5q0 76 -59 128t-139 52q-36 0 -59 -29.5t-23 -64.5zM485 1010h54q0 -2 28 30.5t90 107.5t144 177q26 29 26 68q0 31 -16.5 50t-50.5 19q-47 0 -68 -24q-34 -43 -207 -428 z" />
<glyph unicode="&#x1f15;" horiz-adv-x="878" d="M45 352q0 -101 51.5 -186t138.5 -133.5t187 -48.5h18q119 0 167.5 7t99.5 38q-3 14 -8.5 41.5t-8.5 40.5q-79 -43 -196 -43q-281 0 -281 309h389l14 102h-385q4 65 58 130t127 96q137 58 274 55l12 74q-143 0 -278 -29q-68 -16 -128 -47t-113 -79.5t-89 -120.5t-47 -161 q-2 -14 -2 -45zM334.5 1193.5q3.5 -29.5 13 -55.5t23.5 -44q24 -28 61 -54t62 -34l24 32q-26 15 -44 29t-33 40.5t-15 59.5q0 22 16.5 43t38.5 17q23 -6 46.5 -2.5t42.5 12.5t31.5 26.5t12.5 39.5q0 34 -20.5 63t-58.5 29q-74 0 -128.5 -41.5t-68.5 -102.5 q-7 -28 -3.5 -57.5zM602 1004h53q0 -2 17 17q8 9 20 23l170 207q41 52 56 68q24 28 26 63t-16 54q-25 23 -62 19.5t-57 -23.5q-23 -26 -100 -195q-90 -187 -107 -233z" />
<glyph unicode="&#x1f18;" horiz-adv-x="1622" d="M13 1373.5q5 -37.5 40 -60.5q80 -28 115 -31q20 -6 20 -35q0 -20 -12 -41q-40 -70 -135 -73q-6 -27 -6 -58q16 -4 31 -4q101 0 170 56t69 145q0 91 -58 145.5t-141 52.5q-46 0 -72 -29.5t-21 -67zM418 1378h129q82 -3 82 -96v-1141q0 -84 -82 -84h-127v-57h1081l39 498 h-59q-27 -137 -64.5 -224.5t-94 -135.5t-123 -65.5t-165.5 -17.5q-10 0 -62 1t-88.5 1.5t-66.5 -0.5v631h158q60 0 111 -86t51 -219h55v659h-55q-4 -133 -53 -211.5t-109 -78.5h-158v628q244 -3 275 -8q139 -18 219.5 -107t126.5 -296h55l-10 471h-1065v-62z" />
<glyph unicode="&#x1f19;" horiz-adv-x="1599" d="M0 1255q0 -83 62 -135.5t149 -52.5h16q3 15 0 57q-121 18 -127 86q-7 47 12 60t74 18q132 14 111 113q-12 71 -107 65q-73 -6 -131.5 -64t-58.5 -147zM395 1378h129q82 -3 82 -96v-1141q0 -84 -82 -84h-127v-57h1082l39 498h-60q-22 -110 -51 -187.5t-65 -127.5 t-87 -78.5t-107.5 -39t-135.5 -10.5q-10 0 -62 1t-88.5 1.5t-66.5 -0.5v631h157q60 0 111 -86t51 -219h55v659h-55q-4 -133 -53 -211.5t-109 -78.5h-157v628q243 -3 274 -8q139 -18 219.5 -107t126.5 -296h55l-10 471h-1065v-62z" />
<glyph unicode="&#x1f1a;" horiz-adv-x="1918" d="M0 1313q0 -76 109 -76q16 0 24 2q20 2 37.5 -17t17.5 -42q3 -49 -32 -84q-7 -12 -58 -45l23 -33q70 21 115 78.5t45 130.5q0 78 -59.5 129t-141.5 51q-35 0 -57.5 -28.5t-22.5 -65.5zM317 1399q0 -38 27 -68q81 -99 144 -175t90.5 -108.5t27.5 -31.5h53 q-174 388 -206 428q-21 24 -68 24q-68 0 -68 -69zM715 1378h129q82 -3 82 -96v-1141q0 -84 -82 -84h-127v-57h1081l39 498h-59q-27 -137 -64.5 -224.5t-94 -135.5t-123 -65.5t-165.5 -17.5q-10 0 -62 1t-88.5 1.5t-66.5 -0.5v631h158q60 0 111 -86t51 -219h55v659h-55 q-4 -133 -53 -211.5t-109 -78.5h-158v628q244 -3 275 -8q139 -18 219.5 -107t126.5 -296h55l-10 471h-1065v-62z" />
<glyph unicode="&#x1f1b;" horiz-adv-x="1949" d="M0 1225q0 -72 45.5 -129.5t116.5 -81.5l22 33q-29 20 -42 29.5t-27 25.5t-18.5 33t-4.5 41q0 15 8 30t21 23.5t26 5.5q8 -2 27 -2q107 0 107 78q0 35 -22 63.5t-58 28.5q-53 0 -99 -22.5t-74 -63.5t-28 -92zM340 1395q0 -38 27 -68q81 -99 144 -175t90.5 -108.5 t27.5 -31.5h53q-173 388 -207 428q-20 26 -67 26q-34 0 -51 -19.5t-17 -51.5zM745 1378h129q82 -3 82 -96v-1141q0 -84 -82 -84h-126v-57h1081l39 498h-60q-22 -110 -51 -187.5t-65 -127.5t-87 -78.5t-107.5 -39t-135.5 -10.5q-10 0 -62 1t-88.5 1.5t-66.5 -0.5v631h158 q60 0 110.5 -86t50.5 -219h56v659h-56q-4 -133 -52.5 -211.5t-108.5 -78.5h-158v628q243 -3 274 -8q139 -18 219.5 -107t126.5 -296h56l-11 471h-1065v-62z" />
<glyph unicode="&#x1f1c;" horiz-adv-x="1943" d="M0 1305q0 -78 106 -78q19 0 27 2q19 4 36 -16t17 -42q1 -25 -3.5 -42.5t-18 -33t-26.5 -25t-42 -28.5l23 -34q70 24 115 81.5t45 129.5q0 77 -59 128.5t-140 51.5q-36 0 -58 -29.5t-22 -64.5zM283 1006q53 0 55 2q0 -2 28 30.5t90 107.5t144 177q25 31 25 68q0 69 -66 69 q-46 0 -67 -24q-36 -42 -209 -430zM739 1378h129q82 -3 82 -96v-1141q0 -84 -82 -84h-127v-57h1082l39 498h-60q-22 -110 -51 -187.5t-65 -127.5t-87 -78.5t-107.5 -39t-135.5 -10.5q-10 0 -62 1t-88.5 1.5t-66.5 -0.5v631h157q60 0 111 -86t51 -219h55v659h-55 q-4 -133 -53 -211.5t-109 -78.5h-157v628q243 -3 274 -8q139 -18 219.5 -107t126.5 -296h56l-11 471h-1065v-62z" />
<glyph unicode="&#x1f1d;" horiz-adv-x="1906" d="M4 1251q-10 -39 0.5 -84t32.5 -73q24 -28 61 -54t62 -34l24 32q-41 23 -66.5 52.5t-25.5 76.5q0 22 16.5 43t38.5 17q32 -6 61.5 -0.5t51 26.5t21.5 50q0 34 -21 63t-59 29q-74 0 -128.5 -41.5t-68.5 -102.5zM268 1004h54q0 -1 6.5 6t29.5 34l170 207q41 52 56 68 q24 28 26 63t-16 54q-25 23 -62 19.5t-57 -23.5q-23 -26 -100 -195q-90 -187 -107 -233zM702 1378h129q82 -3 82 -96v-1141q0 -84 -82 -84h-126v-57h1081l39 498h-60q-18 -92 -40.5 -161t-52.5 -118t-64 -81t-79.5 -50.5t-95 -25.5t-114.5 -7q-10 0 -62 1t-88.5 1.5 t-66.5 -0.5v631h158q60 0 110.5 -86t50.5 -219h56v659h-56q-4 -133 -52.5 -211.5t-108.5 -78.5h-158v628q243 -3 274 -8q93 -12 156 -51.5t111 -125t79 -226.5h56l-11 471h-1065v-62z" />
<glyph unicode="&#x1f20;" horiz-adv-x="1024" d="M27 569h36q52 136 144 133q42 0 71 -46t29 -105q0 -15 -4 -43q-88 -375 -133 -506l145 -2l76 373q99 397 287 397q115 0 115 -154q0 -57 -23 -147l-221 -932h78q80 3 80 0q14 64 57.5 271t87 417.5t57.5 274.5q13 63 13 110q0 104 -55 162.5t-148 58.5q-33 0 -78 -10 q-147 -35 -254 -250q5 108 -40.5 182t-129.5 74q-82 1 -121.5 -60.5t-68.5 -197.5zM457 1360.5q4 -37.5 39 -60.5q77 -27 116 -30q19 -10 19 -35q0 -18 -10 -41q-40 -70 -138 -76q-4 -36 -4 -55q12 -4 29 -4q88 0 164 57.5t76 143.5q0 6 -5 36q-17 68 -72 114t-122 46 q-44 0 -70 -29t-22 -66.5z" />
<glyph unicode="&#x1f21;" horiz-adv-x="1024" d="M27 569h36q52 136 144 133q42 0 71 -46t29 -105q0 -15 -4 -43q-88 -375 -133 -506l145 -2l76 373q99 397 287 397q115 0 115 -154q0 -57 -23 -147l-221 -932h78q80 3 80 0q18 79 102 484.5t100 478.5q13 63 13 110q0 104 -55 162.5t-148 58.5q-33 0 -78 -10 q-147 -35 -254 -250q3 70 -15 127t-58.5 93t-96.5 36q-34 1 -61 -11t-46 -32t-34.5 -54.5t-26 -71t-22.5 -89.5zM487 1247q0 -83 61.5 -136.5t149.5 -53.5q11 0 17 2v55q-120 18 -129 86q-3 26 0.5 41.5t18 23.5t27 10t42.5 5q131 14 110 111q-15 70 -106 67 q-73 -6 -132 -64.5t-59 -146.5z" />
<glyph unicode="&#x1f22;" horiz-adv-x="1024" d="M27 569h36q52 136 144 133q42 0 71 -46t29 -105q0 -15 -4 -43q-88 -375 -133 -506l145 -2l76 373q99 397 287 397q115 0 115 -154q0 -57 -23 -147l-221 -932h78q80 3 80 0q14 64 57.5 271t87 417.5t57.5 274.5q13 63 13 110q0 104 -55 162.5t-148 58.5q-33 0 -78 -10 q-147 -35 -254 -250q5 108 -40.5 182t-129.5 74q-82 1 -121.5 -60.5t-68.5 -197.5zM233 1313q0 -78 109 -78q19 0 25 2q19 4 37 -16t18 -41q1 -47 -17.5 -70.5t-72.5 -58.5l22 -35q70 20 115 79t45 132q0 76 -59 127t-140 51q-37 0 -59.5 -27.5t-22.5 -64.5zM551 1399 q0 -40 27 -70q87 -105 146.5 -176.5t88.5 -105t29 -31.5q0 -3 51 0q-171 387 -207 426q-21 24 -68 24q-32 0 -49.5 -18.5t-17.5 -48.5z" />
<glyph unicode="&#x1f23;" horiz-adv-x="1024" d="M27 569h36q52 136 144 133q42 0 71 -46t29 -105q0 -15 -4 -43q-88 -375 -133 -506l145 -2l76 373q99 397 287 397q115 0 115 -154q0 -57 -23 -147l-221 -932h78q80 3 80 0q14 64 57.5 271t87 417.5t57.5 274.5q13 63 13 110q0 104 -55 162.5t-148 58.5q-33 0 -78 -10 q-147 -35 -254 -250q5 108 -40.5 182t-129.5 74q-82 1 -121.5 -60.5t-68.5 -197.5zM276 1223q0 -72 45 -129.5t115 -81.5l25 35q-39 25 -54.5 37.5t-27 35.5t-10.5 56q0 21 17.5 40.5t37.5 18.5q16 -4 25 -4q108 0 108 78q0 37 -22.5 64.5t-57.5 27.5q-82 0 -141.5 -51 t-59.5 -127zM616 1395q0 -37 25 -68q82 -102 144 -177t90 -107.5t28 -30.5h55q-175 392 -208 428q-21 24 -68 24q-66 0 -66 -69z" />
<glyph unicode="&#x1f24;" horiz-adv-x="1024" d="M27 569h36q52 136 144 133q42 0 71 -46t29 -105q0 -15 -4 -43q-88 -375 -133 -506l145 -2l76 373q99 397 287 397q115 0 115 -154q0 -57 -23 -147l-221 -932h78q80 3 80 0q14 64 57.5 271t87 417.5t57.5 274.5q13 63 13 110q0 104 -55 162.5t-148 58.5q-33 0 -78 -10 q-147 -35 -254 -250q5 108 -40.5 182t-129.5 74q-82 1 -121.5 -60.5t-68.5 -197.5zM360 1303q0 -76 107 -76h27q19 4 37 -16.5t18 -41.5q0 -47 -19 -70.5t-73 -58.5l22 -34q71 24 116.5 81.5t45.5 129.5q0 76 -60 128t-141 52q-36 0 -58 -28t-22 -66zM643 1006h55 q0 -2 28 30.5t90.5 108t144.5 176.5q24 30 24 68q0 69 -65 69q-47 0 -68 -24q-35 -41 -209 -428z" />
<glyph unicode="&#x1f25;" horiz-adv-x="1026" d="M27 569h36q52 136 144 133q42 0 71 -46t29 -105q0 -15 -4 -43q-88 -375 -133 -506l145 -2l76 373q99 397 287 397q115 0 115 -154q0 -57 -23 -147l-221 -932h78q80 3 80 0q18 79 102 484.5t100 478.5q13 63 13 110q0 104 -55 162.5t-148 58.5q-33 0 -78 -10 q-147 -35 -254 -250q3 70 -15 127t-58 93t-97 36q-34 1 -61 -11t-46 -32t-34.5 -54.5t-26 -71t-22.5 -89.5zM377.5 1193.5q3.5 -29.5 13 -55.5t23.5 -44q24 -28 61 -54t62 -34l24 32q-41 23 -66.5 52.5t-25.5 76.5q0 22 16.5 43t38.5 17q23 -6 46.5 -2.5t42.5 12.5 t31.5 26.5t12.5 39.5q0 21 -8 41t-26.5 35.5t-44.5 15.5q-74 0 -128.5 -41.5t-68.5 -102.5q-7 -28 -3.5 -57.5zM645 1004h53q0 -2 17 17q8 9 20 23l170 207q41 52 56 68q24 28 26 63t-16 54q-25 23 -62 19.5t-57 -23.5q-23 -26 -100 -195q-90 -187 -107 -233z" />
<glyph unicode="&#x1f26;" horiz-adv-x="1024" d="M27 569h36q52 136 144 133q42 0 71 -46t29 -105q0 -15 -4 -43q-88 -375 -133 -506l145 -2l76 373q99 397 287 397q115 0 115 -154q0 -57 -23 -147l-221 -932h78q80 3 80 0q14 64 57.5 271t87 417.5t57.5 274.5q13 63 13 110q0 104 -55 162.5t-148 58.5q-33 0 -78 -10 q-147 -35 -254 -250q5 108 -40.5 182t-129.5 74q-82 1 -121.5 -60.5t-68.5 -197.5zM190 1225h58q71 139 244 139q203 0 253 -139h58q0 48 -55 121q-88 114 -259 114q-211 0 -299 -235zM371 1157q0 -78 106 -78q19 0 27 2q20 4 37.5 -15.5t17.5 -43.5q0 -46 -19 -69t-73 -60 l22 -33q71 24 116.5 81.5t45.5 129.5q0 76 -59.5 127t-140.5 51q-36 0 -58 -28.5t-22 -63.5z" />
<glyph unicode="&#x1f27;" horiz-adv-x="1024" d="M27 569h36q52 136 144 133q42 0 71 -46t29 -105q0 -15 -4 -43q-88 -375 -133 -506l145 -2l76 373q99 397 287 397q115 0 115 -154q0 -57 -23 -147l-221 -932h78q80 3 80 0q14 64 57.5 271t87 417.5t57.5 274.5q13 63 13 110q0 104 -55 162.5t-148 58.5q-33 0 -78 -10 q-147 -35 -254 -250q5 108 -40.5 182t-129.5 74q-82 1 -121.5 -60.5t-68.5 -197.5zM287 1227h57q74 141 246 141q202 0 252 -141h57q0 50 -53 121q-88 114 -260 114q-211 0 -299 -235zM432 1083q0 -71 44.5 -128t113.5 -81l24 33q-54 37 -72.5 60t-17.5 69q0 24 18 44t38 16 q6 -2 24 -2q109 0 109 77q0 35 -23 64.5t-59 30.5q-83 0 -141 -51.5t-58 -131.5z" />
<glyph unicode="&#x1f28;" horiz-adv-x="1720" d="M13 1373.5q5 -37.5 40 -60.5q80 -28 115 -31q20 -6 20 -35q0 -20 -12 -41q-40 -70 -135 -73q-6 -27 -6 -58q16 -4 31 -4q101 0 170 56t69 145q0 91 -58 145.5t-141 52.5q-46 0 -72 -29.5t-21 -67zM375 -2h571l-4 65h-119q-81 0 -78 80v570h541v-570q0 -80 -78 -80h-121 v-61h574v61h-123q-32 0 -55 22t-23 52v1170q0 77 80 77h119v62h-567v-62h120q74 0 74 -79v-523h-543v523q0 79 82 79h119v62h-569v-62h121q77 0 77 -77v-1162q0 -79 -75 -79h-123v-68z" />
<glyph unicode="&#x1f29;" horiz-adv-x="1720" d="M0 1255q0 -83 62 -135.5t149 -52.5h16q3 15 0 57q-121 18 -127 86q-7 47 12 60t74 18q132 14 111 113q-12 71 -107 65q-73 -6 -131.5 -64t-58.5 -147zM375 -2h571l-4 65h-119q-81 0 -78 80v570h541v-570q0 -80 -78 -80h-121v-61h574v61h-123q-32 0 -55 22t-23 52v1170 q0 77 80 77h119v62h-567v-62h120q74 0 74 -79v-523h-543v523q0 79 82 79h119v62h-569v-62h121q77 0 77 -77v-1162q0 -79 -75 -79h-123v-68z" />
<glyph unicode="&#x1f2a;" horiz-adv-x="2068" d="M0 1313q0 -76 109 -76q16 0 24 2q20 2 37.5 -17t17.5 -42q3 -49 -32 -84q-7 -12 -58 -45l23 -33q70 21 115 78.5t45 130.5q0 78 -59.5 129t-141.5 51q-35 0 -57.5 -28.5t-22.5 -65.5zM317 1399q0 -38 27 -68q81 -99 144 -175t90.5 -108.5t27.5 -31.5h53 q-174 388 -206 428q-21 24 -68 24q-68 0 -68 -69zM723 -2h571l-4 65h-119q-80 0 -77 80v570h540v-570q0 -80 -78 -80h-120v-61h573v61h-123q-32 0 -55 22t-23 52v1170q0 77 80 77h119v62h-567v-62h121q73 0 73 -79v-523h-542v523q0 79 82 79h118v62h-569v-62h121 q78 0 78 -77v-1162q0 -79 -76 -79h-123v-68z" />
<glyph unicode="&#x1f2b;" horiz-adv-x="2095" d="M0 1225q0 -72 45.5 -129.5t116.5 -81.5l22 33q-54 37 -73 60t-19 69q0 24 17.5 43.5t37.5 15.5q8 -2 27 -2q107 0 107 78q0 35 -22 63.5t-58 28.5q-82 0 -141.5 -51t-59.5 -127zM340 1395q0 -38 27 -68q81 -99 144 -175t90.5 -108.5t27.5 -31.5h53q-173 388 -207 428 q-20 26 -67 26q-34 0 -51 -19.5t-17 -51.5zM750 -2h571l-4 65h-119q-81 0 -78 80v570h541v-570q0 -80 -78 -80h-121v-61h574v61h-123q-32 0 -55 22t-23 52v1170q0 77 80 77h119v62h-568v-62h121q74 0 74 -79v-523h-543v523q0 79 82 79h119v62h-569v-62h120q78 0 78 -77 v-1162q0 -79 -76 -79h-122v-68z" />
<glyph unicode="&#x1f2c;" horiz-adv-x="2037" d="M0 1305q0 -78 106 -78q19 0 27 2q19 4 36 -16t17 -42q1 -47 -17.5 -70.5t-72.5 -58.5l23 -34q70 24 115 81.5t45 129.5q0 77 -59 128.5t-140 51.5q-36 0 -58 -29.5t-22 -64.5zM283 1006q53 0 55 2q0 -2 28 30.5t90 107.5t144 177q25 31 25 68q0 69 -66 69q-46 0 -67 -24 q-36 -42 -209 -430zM692 -2h572l-4 65h-119q-81 0 -78 80v570h541v-570q0 -80 -78 -80h-121v-61h573v61h-123q-32 0 -54.5 22t-22.5 52v1170q0 77 80 77h118v62h-567v-62h121q74 0 74 -79v-523h-543v523q0 79 82 79h119v62h-570v-62h121q78 0 78 -77v-1162q0 -79 -76 -79 h-123v-68z" />
<glyph unicode="&#x1f2d;" horiz-adv-x="2031" d="M4 1251q-10 -39 0.5 -84t32.5 -73q24 -28 61 -54t62 -34l24 32q-41 23 -66.5 52.5t-25.5 76.5q0 22 16.5 43t38.5 17q32 -6 61.5 -0.5t51 26.5t21.5 50q0 34 -21 63t-59 29q-74 0 -128.5 -41.5t-68.5 -102.5zM268 1004h54q0 -1 6.5 6t29.5 34l170 207q41 52 56 68 q24 28 26 63t-16 54q-25 23 -62 19.5t-57 -23.5q-23 -26 -100 -195q-90 -187 -107 -233zM686 -2h571l-4 65h-118q-81 0 -78 80v570h540v-570q0 -80 -77 -80h-121v-61h573v61h-123q-16 0 -30 6t-24.5 16t-16.5 24t-6 28v1170q0 77 79 77h119v62h-567v-62h121q73 0 73 -79 v-523h-542v523q0 79 82 79h118v62h-569v-62h121q78 0 78 -77v-1162q0 -79 -76 -79h-123v-68z" />
<glyph unicode="&#x1f2e;" horiz-adv-x="2027" d="M0 1229h57q71 141 244 141q203 0 256 -141h55q0 51 -55 121q-88 116 -256 116q-213 0 -301 -237zM180 1163q0 -80 107 -80q10 0 26 4q20 4 38 -15.5t18 -43.5q0 -46 -19.5 -70t-73.5 -59l25 -33q69 21 114.5 79t45.5 130q0 76 -60 128t-141 52q-36 0 -58 -28.5t-22 -63.5 zM682 -2h571l-4 65h-119q-80 0 -77 80v570h540v-570q0 -80 -77 -80h-121v-61h573v61h-123q-32 0 -55 22t-23 52v1170q0 77 80 77h119v62h-567v-62h121q73 0 73 -79v-523h-542v523q0 79 82 79h118v62h-569v-62h121q78 0 78 -77v-1162q0 -79 -76 -79h-123v-68z" />
<glyph unicode="&#x1f2f;" horiz-adv-x="2027" d="M0 1227h57q73 141 246 141q201 0 254 -141h57q0 51 -55 121q-89 114 -258 114q-213 0 -301 -235zM145 1083q0 -71 44.5 -128t113.5 -81l25 33q-54 37 -72.5 60t-17.5 69q0 24 17.5 44t37.5 16q6 -2 24 -2q109 0 109 77q0 35 -23 64.5t-59 30.5q-83 0 -141 -51.5 t-58 -131.5zM682 -2h571l-4 65h-119q-80 0 -77 80v570h540v-570q0 -80 -77 -80h-121v-61h573v61h-123q-32 0 -55 22t-23 52v1170q0 77 80 77h119v62h-567v-62h121q73 0 73 -79v-523h-542v523q0 79 82 79h118v62h-569v-62h121q78 0 78 -77v-1162q0 -79 -76 -79h-123v-68z" />
<glyph unicode="&#x1f30;" horiz-adv-x="538" d="M94 221q-6 -117 43.5 -179t128.5 -62q93 0 157.5 74t90.5 192h-55q-50 -158 -154 -158q-74 0 -74 94q0 120 111 506q12 40 13.5 65.5t-1.5 38.5t-19 18t-28 5t-40.5 -2t-45.5 -2q-117 -441 -127 -590zM277.5 1367q4.5 -37 37.5 -60q83 -28 117 -31q21 -9 21 -35 q0 -18 -13 -41q-40 -70 -135 -76q-6 -27 -6 -55q16 -4 31 -4q86 0 162.5 57.5t76.5 143.5q0 19 -6 37q-13 67 -68.5 113t-123.5 46q-46 0 -72 -29t-21.5 -66z" />
<glyph unicode="&#x1f31;" horiz-adv-x="538" d="M94 221q-6 -117 43.5 -179t128.5 -62q93 0 157.5 74t90.5 192h-55q-50 -158 -154 -158q-74 0 -74 94q0 120 111 506q12 40 13.5 65.5t-1.5 38.5t-19 18t-28 5t-40.5 -2t-45.5 -2q-117 -441 -127 -590zM250 1255q0 -83 61 -135.5t148 -52.5h18v57q-120 18 -129 86 q-6 47 13 60t75 18q132 14 111 113q-15 71 -109 65q-73 -6 -130.5 -64t-57.5 -147z" />
<glyph unicode="&#x1f32;" horiz-adv-x="538" d="M-41 1303q0 -76 109 -76q16 0 24 2q20 1 37.5 -18t17.5 -42q3 -49 -32 -84q-7 -12 -58 -45l23 -32q70 21 115 78.5t45 130.5q0 78 -59.5 129t-141.5 51q-35 0 -57.5 -28.5t-22.5 -65.5zM94 221q-6 -117 43.5 -179t128.5 -62q93 0 157.5 74t90.5 192h-55 q-50 -158 -154 -158q-74 0 -74 94q0 120 111 506q12 40 13.5 65.5t-1.5 38.5t-19 18t-28 5t-40.5 -2t-45.5 -2q-117 -441 -127 -590zM276 1389q0 -38 27 -68q81 -99 144 -175t90.5 -108.5t27.5 -31.5h53q-174 388 -206 428q-21 24 -68 24q-68 0 -68 -69z" />
<glyph unicode="&#x1f33;" horiz-adv-x="538" d="M-31 1225q0 -72 45.5 -130.5t114.5 -78.5l25 33q-31 21 -42.5 30t-27 25t-20 33t-3.5 41q0 24 18 43.5t38 15.5q8 -2 24 -2q109 0 109 78q0 35 -22.5 63.5t-57.5 28.5q-81 0 -141 -52t-60 -128zM94 221q-6 -117 43.5 -179t128.5 -62q93 0 157.5 74t90.5 192h-55 q-50 -158 -154 -158q-74 0 -74 94q0 120 111 506q12 40 13.5 65.5t-1.5 38.5t-19 18t-28 5t-40.5 -2t-45.5 -2q-117 -441 -127 -590zM309 1397q0 -37 25 -68q81 -99 144 -175t90.5 -108.5t27.5 -31.5h55q-174 390 -209 428q-21 24 -67 24q-66 0 -66 -69z" />
<glyph unicode="&#x1f34;" horiz-adv-x="538" d="M27 1311q0 -76 106 -76h27q19 4 36 -15.5t17 -41.5q1 -47 -17.5 -70.5t-72.5 -58.5l22 -35q70 24 115 81.5t45 129.5q0 77 -59 128.5t-140 51.5q-36 0 -57.5 -29t-21.5 -65zM94 221q-6 -117 43.5 -179t128.5 -62q93 0 157.5 74t90.5 192h-55q-50 -158 -154 -158 q-74 0 -74 94q0 120 111 506q12 40 13.5 65.5t-1.5 38.5t-19 18t-28 5t-40.5 -2t-45.5 -2q-117 -441 -127 -590zM309 1012q54 0 56 2q0 -2 28 30.5t90 107.5t144 177q24 30 24 68q0 69 -65 69q-47 0 -68 -24q-36 -42 -209 -430z" />
<glyph unicode="&#x1f35;" horiz-adv-x="538" d="M35 1251q-10 -39 0.5 -84t32.5 -73q24 -28 60.5 -54t61.5 -34l25 32q-41 23 -66.5 52.5t-25.5 76.5q0 22 16.5 43t38.5 17q23 -6 46.5 -2.5t42.5 12.5t31.5 26.5t12.5 39.5q0 34 -21 63t-59 29q-73 0 -127.5 -41.5t-68.5 -102.5zM94 221q-6 -117 43.5 -179t128.5 -62 q93 0 157.5 74t90.5 192h-55q-50 -158 -154 -158q-74 0 -74 94q0 120 111 506q10 34 13.5 57.5t-0.5 37.5t-10 21.5t-21 9t-27.5 1t-36 -2t-39.5 -1.5q-117 -441 -127 -590zM299 1004h53q0 -2 17 17q8 9 20 23l170 207q44 57 55 68q24 28 26.5 63t-15.5 54q-25 23 -62 19.5 t-57 -23.5q-23 -26 -100 -195q-90 -187 -107 -233z" />
<glyph unicode="&#x1f36;" horiz-adv-x="538" d="M-12 1229h55q73 141 246 141q205 0 254 -141h57q0 51 -55 121q-88 116 -258 116q-214 0 -299 -237zM94 221q-6 -117 43.5 -179t128.5 -62q93 0 157.5 74t90.5 192h-55q-50 -158 -154 -158q-74 0 -74 94q0 120 111 506q12 40 13.5 65.5t-1.5 38.5t-19 18t-28 5t-40.5 -2 t-45.5 -2q-117 -441 -127 -590zM166 1163q0 -80 108 -80q13 0 25 4q20 4 37.5 -15.5t17.5 -43.5q0 -46 -19.5 -70t-72.5 -59l25 -33q70 20 114.5 78t44.5 131q0 76 -59 128t-139 52q-36 0 -59 -28.5t-23 -63.5z" />
<glyph unicode="&#x1f37;" horiz-adv-x="581" d="M31 1233h57q74 141 244 141q204 0 254 -141h57q0 51 -55 121q-88 116 -258 116q-214 0 -299 -237zM94 221q-6 -117 43.5 -179t128.5 -62q93 0 157.5 74t90.5 192h-55q-50 -158 -154 -158q-74 0 -74 94q0 120 111 506q12 40 13.5 65.5t-1.5 38.5t-19 18t-28 5t-40.5 -2 t-45.5 -2q-117 -441 -127 -590zM176 1092q0 -72 44.5 -129.5t113.5 -81.5l24 32q-54 37 -72.5 60t-17.5 69q0 24 17 44t37 16q8 -2 26 -2q107 0 107 78q0 35 -22 64t-58 30q-85 0 -142 -50.5t-57 -129.5z" />
<glyph unicode="&#x1f38;" horiz-adv-x="1085" d="M13 1373.5q5 -37.5 40 -60.5q80 -28 115 -31q20 -6 20 -35q0 -20 -12 -41q-40 -70 -135 -73q-6 -27 -6 -58q16 -4 31 -4q101 0 170 56t69 145q0 91 -58 145.5t-141 52.5q-46 0 -72 -29.5t-21 -67zM412 1378h127q79 0 82 -92v-1145q0 -84 -80 -84h-127v-57h602v57h-127 q-81 0 -84 84v1155q0 82 84 82h127v62h-604v-62z" />
<glyph unicode="&#x1f39;" horiz-adv-x="1095" d="M0 1255q0 -83 62 -135.5t149 -52.5h16q3 15 0 57q-121 18 -127 86q-7 47 12 60t74 18q132 14 111 113q-12 71 -107 65q-73 -6 -131.5 -64t-58.5 -147zM422 1378h127q79 0 82 -92v-1145q0 -84 -80 -84h-127v-57h602v57h-127q-81 0 -84 84v1155q0 82 84 82h127v62h-604v-62 z" />
<glyph unicode="&#x1f3a;" horiz-adv-x="1437" d="M0 1313q0 -76 109 -76q16 0 24 2q20 2 37.5 -17t17.5 -42q3 -49 -32 -84q-7 -12 -58 -45l23 -33q70 21 115 78.5t45 130.5q0 78 -59.5 129t-141.5 51q-35 0 -57.5 -28.5t-22.5 -65.5zM317 1399q0 -38 27 -68q81 -99 144 -175t90.5 -108.5t27.5 -31.5h53 q-174 388 -206 428q-21 24 -68 24q-68 0 -68 -69zM764 1378h127q79 0 82 -92v-1145q0 -84 -80 -84h-127v-57h602v57h-127q-81 0 -84 84v1155q0 82 84 82h127v62h-604v-62z" />
<glyph unicode="&#x1f3b;" horiz-adv-x="1458" d="M0 1225q0 -72 45.5 -129.5t116.5 -81.5l22 33q-54 37 -73 60t-19 69q0 24 17.5 43.5t37.5 15.5q8 -2 27 -2q107 0 107 78q0 35 -22 63.5t-58 28.5q-82 0 -141.5 -51t-59.5 -127zM340 1395q0 -38 27 -68q81 -99 144 -175t90.5 -108.5t27.5 -31.5h53q-173 388 -207 428 q-20 26 -67 26q-34 0 -51 -19.5t-17 -51.5zM784 1378h127q79 0 82 -92v-1145q0 -84 -80 -84h-127v-57h603v57h-127q-81 0 -84 84v1155q0 82 84 82h127v62h-605v-62z" />
<glyph unicode="&#x1f3c;" horiz-adv-x="1402" d="M0 1305q0 -78 106 -78q19 0 27 2q19 4 36 -16t17 -42q1 -47 -17.5 -70.5t-72.5 -58.5l23 -34q70 24 115 81.5t45 129.5q0 77 -59 128.5t-140 51.5q-36 0 -58 -29.5t-22 -64.5zM283 1006q53 0 55 2q0 -2 28 30.5t90 107.5t144 177q25 31 25 68q0 69 -66 69q-46 0 -67 -24 q-36 -42 -209 -430zM729 1378h127q79 0 82 -92v-1145q0 -84 -80 -84h-127v-57h602v57h-127q-81 0 -84 84v1155q0 82 84 82h127v62h-604v-62z" />
<glyph unicode="&#x1f3d;" horiz-adv-x="1392" d="M4 1251q-10 -39 0.5 -84t32.5 -73q24 -28 61 -54t62 -34l24 32q-41 23 -66.5 52.5t-25.5 76.5q0 22 16.5 43t38.5 17q32 -6 61.5 -0.5t51 26.5t21.5 50q0 34 -21 63t-59 29q-74 0 -128.5 -41.5t-68.5 -102.5zM268 1004h54q0 -1 6.5 6t29.5 34l170 207q41 52 56 68 q24 28 26 63t-16 54q-25 23 -62 19.5t-57 -23.5q-23 -26 -100 -195q-90 -187 -107 -233zM719 1378h127q79 0 82 -92v-1145q0 -84 -80 -84h-127v-57h602v57h-127q-81 0 -84 84v1155q0 82 84 82h127v62h-604v-62z" />
<glyph unicode="&#x1f3e;" horiz-adv-x="1392" d="M0 1229h57q71 141 244 141q203 0 256 -141h55q0 51 -55 121q-88 116 -256 116q-213 0 -301 -237zM180 1163q0 -80 107 -80q10 0 26 4q20 4 38 -15.5t18 -43.5q0 -46 -19.5 -70t-73.5 -59l25 -33q69 21 114.5 79t45.5 130q0 76 -60 128t-141 52q-36 0 -58 -28.5t-22 -63.5 zM719 1378h127q79 0 82 -92v-1145q0 -84 -80 -84h-127v-57h602v57h-127q-81 0 -84 84v1155q0 82 84 82h127v62h-604v-62z" />
<glyph unicode="&#x1f3f;" horiz-adv-x="1392" d="M0 1227h57q73 141 246 141q201 0 254 -141h57q0 51 -55 121q-89 114 -258 114q-213 0 -301 -235zM145 1083q0 -71 44.5 -128t113.5 -81l25 33q-54 37 -72.5 60t-17.5 69q0 24 17.5 44t37.5 16q6 -2 24 -2q109 0 109 77q0 35 -23 64.5t-59 30.5q-83 0 -141 -51.5 t-58 -131.5zM719 1378h127q79 0 82 -92v-1145q0 -84 -80 -84h-127v-57h602v57h-127q-81 0 -84 84v1155q0 82 84 82h127v62h-604v-62z" />
<glyph unicode="&#x1f40;" horiz-adv-x="960" d="M84 365q-6 -164 89.5 -266.5t252.5 -114.5q95 -6 180 26.5t145 92.5t97.5 142.5t42.5 174.5q10 189 -84.5 298t-265.5 109q-209 0 -330 -129.5t-127 -332.5zM252 371q3 106 38.5 195.5t104 146t156.5 53.5q59 0 99 -40.5t56.5 -102t16.5 -138.5q0 -99 -25.5 -186 t-66.5 -147q-26 -39 -65 -66t-82.5 -39t-86.5 0t-76.5 46t-52.5 105.5t-16 172.5zM471 1367q4 -37 39 -60q80 -28 117 -31q18 -9 18 -35q0 -20 -12 -41q-40 -70 -135 -76q-4 -36 -4 -55q12 -4 28 -4q86 0 163 57.5t77 143.5q0 19 -6 37q-13 67 -69 113t-124 46 q-44 0 -70 -29t-22 -66z" />
<glyph unicode="&#x1f41;" horiz-adv-x="960" d="M84 365q-6 -164 89.5 -266.5t252.5 -114.5q95 -6 180 26.5t145 92.5t97.5 142.5t42.5 174.5q10 189 -84.5 298t-265.5 109q-209 0 -330 -129.5t-127 -332.5zM252 371q3 106 38.5 195.5t104 146t156.5 53.5q59 0 99 -40.5t56.5 -102t16.5 -138.5q0 -99 -25.5 -186 t-66.5 -147q-26 -39 -65 -66t-82.5 -39t-86.5 0t-76.5 46t-52.5 105.5t-16 172.5zM547 1249q0 -83 61 -135.5t148 -52.5h18v57q-120 15 -129 86q-6 47 13 60t75 18q25 3 44.5 8.5t38.5 17t26.5 34t1.5 53.5q-15 71 -109 65q-73 -6 -130.5 -64t-57.5 -147z" />
<glyph unicode="&#x1f42;" horiz-adv-x="960" d="M84 365q-6 -164 89.5 -266.5t252.5 -114.5q95 -6 180 26.5t145 92.5t97.5 142.5t42.5 174.5q10 189 -84.5 298t-265.5 109q-209 0 -330 -129.5t-127 -332.5zM252 371q3 106 38.5 195.5t104 146t156.5 53.5q59 0 99 -40.5t56.5 -102t16.5 -138.5q0 -99 -25.5 -186 t-66.5 -147q-26 -39 -65 -66t-82.5 -39t-86.5 0t-76.5 46t-52.5 105.5t-16 172.5zM272 1315q0 -78 109 -78q13 0 25 4q20 2 37.5 -17t17.5 -42q3 -48 -33 -84q-8 -13 -57 -45l22 -33q70 21 115 78.5t45 130.5q0 76 -59.5 128t-139.5 52q-37 0 -59.5 -28.5t-22.5 -65.5z M590 1401q0 -39 26 -68q82 -101 144.5 -176.5t90.5 -108t28 -30.5q0 -3 53 0q-173 385 -207 428q-21 24 -68 24q-34 0 -50.5 -19t-16.5 -50z" />
<glyph unicode="&#x1f43;" horiz-adv-x="960" d="M84 365q-6 -164 89.5 -266.5t252.5 -114.5q95 -6 180 26.5t145 92.5t97.5 142.5t42.5 174.5q10 189 -84.5 298t-265.5 109q-209 0 -330 -129.5t-127 -332.5zM252 371q3 106 38.5 195.5t104 146t156.5 53.5q59 0 99 -40.5t56.5 -102t16.5 -138.5q0 -99 -25.5 -186 t-66.5 -147q-26 -39 -65 -66t-82.5 -39t-86.5 0t-76.5 46t-52.5 105.5t-16 172.5zM303 1225q0 -72 45.5 -130.5t114.5 -78.5l24 33q-56 36 -74.5 59.5t-17.5 69.5q0 24 17 43.5t37 15.5q8 -2 26 -2q107 0 107 78q0 35 -22 63.5t-58 28.5q-81 0 -140 -51.5t-59 -128.5z M641 1397q0 -38 27 -68q81 -99 144 -175t90.5 -108.5t27.5 -31.5h53q-173 388 -207 428q-21 24 -67 24q-34 0 -51 -19t-17 -50z" />
<glyph unicode="&#x1f44;" horiz-adv-x="960" d="M84 365q-6 -164 89.5 -266.5t252.5 -114.5q95 -6 180 26.5t145 92.5t97.5 142.5t42.5 174.5q10 189 -84.5 298t-265.5 109q-209 0 -330 -129.5t-127 -332.5zM252 371q3 106 38.5 195.5t104 146t156.5 53.5q59 0 99 -40.5t56.5 -102t16.5 -138.5q0 -99 -25.5 -186 t-66.5 -147q-26 -39 -65 -66t-82.5 -39t-86.5 0t-76.5 46t-52.5 105.5t-16 172.5zM383 1317q0 -78 106 -78q19 0 27 2q19 4 37 -16t18 -41q0 -48 -19 -73t-73 -58l25 -33q69 21 114.5 79t45.5 132t-60 126t-141 52q-35 0 -57.5 -28.5t-22.5 -63.5zM668 1018q51 0 53 2 q0 -3 28.5 30t89 106t144.5 177q27 30 27 68q0 69 -68 69q-47 0 -68 -24q-35 -38 -206 -428z" />
<glyph unicode="&#x1f45;" horiz-adv-x="960" d="M84 365q-6 -164 89.5 -266.5t252.5 -114.5q76 -5 146.5 15t126 60t97.5 95.5t66.5 123.5t28.5 142q7 126 -33.5 218t-122 140.5t-194.5 48.5q-105 0 -191 -35.5t-142.5 -97.5t-88.5 -146t-35 -183zM252 371q2 78 24 150t59 127.5t93.5 87.5t122.5 30q45 0 78.5 -23 t53.5 -63t30 -89t10 -106q0 -99 -25.5 -186t-66.5 -147q-19 -29 -46.5 -52t-58.5 -38t-64 -19t-64.5 3t-59 31t-47.5 61t-31 97t-8 136zM393 1251q-10 -39 0.5 -84t32.5 -73q24 -28 61 -54t62 -34l24 32q-41 23 -66.5 52.5t-25.5 76.5q0 22 17 43t39 17q48 -11 90.5 10.5 t42.5 65.5q0 34 -21 63t-59 29q-74 0 -128.5 -41.5t-68.5 -102.5zM657 1004h54q0 -2 17 17q8 9 20 23l170 207q44 57 55 68q24 28 26 63t-16 54q-25 23 -62 19.5t-57 -23.5q-23 -26 -100 -195q-90 -187 -107 -233z" />
<glyph unicode="&#x1f48;" horiz-adv-x="1634" d="M13 1373.5q5 -37.5 40 -60.5q80 -28 115 -31q20 -6 20 -35q0 -20 -12 -41q-40 -70 -135 -73q-6 -27 -6 -58q16 -4 31 -4q101 0 170 56t69 145q0 91 -58 145.5t-141 52.5q-46 0 -72 -29.5t-21 -67zM391 725q0 -147 43 -282.5t118 -237.5t185 -162.5t236 -60.5 q131 0 239 60.5t178 164t109.5 236.5t42.5 282q2 152 -35.5 286t-109.5 235.5t-183.5 160.5t-248.5 59q-159 0 -293 -108.5t-207.5 -278t-73.5 -354.5zM614 733q0 99 6 180t20.5 159t41 135.5t65 102t94.5 67t128 22.5t128 -21.5t94.5 -65t64 -99.5t40 -134.5t20 -160 t5.5 -185.5q0 -101 -5.5 -181.5t-18.5 -162t-38.5 -140.5t-63 -106.5t-94 -71.5t-128.5 -24q-89 0 -154 35.5t-104 94.5t-62 150.5t-31 186t-8 219.5z" />
<glyph unicode="&#x1f49;" horiz-adv-x="1638" d="M0 1255q0 -83 62 -135.5t149 -52.5h16q3 15 0 57q-121 18 -127 86q-7 47 12 60t74 18q132 14 111 113q-12 71 -107 65q-73 -6 -131.5 -64t-58.5 -147zM395 725q0 -147 43 -282.5t118 -237.5t185 -162.5t236 -60.5q131 0 239 60.5t178 164t109.5 236.5t42.5 282 q2 152 -35.5 286t-109.5 235.5t-183.5 160.5t-248.5 59q-159 0 -293 -108.5t-207.5 -278t-73.5 -354.5zM618 733q0 99 6 180t20.5 159t41 135.5t65 102t94.5 67t128 22.5t128 -21.5t94.5 -65t64 -99.5t40 -134.5t20 -160t5.5 -185.5q0 -101 -5.5 -181.5t-18.5 -162 t-38.5 -140.5t-63 -106.5t-94 -71.5t-128.5 -24q-89 0 -154 35.5t-104 94.5t-62 150.5t-31 186t-8 219.5z" />
<glyph unicode="&#x1f4a;" horiz-adv-x="1992" d="M0 1313q0 -76 109 -76q16 0 24 2q20 2 37.5 -17t17.5 -42q3 -49 -32 -84q-7 -12 -58 -45l23 -33q70 21 115 78.5t45 130.5q0 78 -59.5 129t-141.5 51q-35 0 -57.5 -28.5t-22.5 -65.5zM317 1399q0 -38 27 -68q81 -99 144 -175t90.5 -108.5t27.5 -31.5h53 q-174 388 -206 428q-21 24 -68 24q-68 0 -68 -69zM750 725q0 -198 72 -367t206.5 -272.5t302.5 -103.5q131 0 239 60.5t178.5 164t110 236.5t42.5 282q2 152 -36 286t-109.5 235.5t-183.5 160.5t-249 59q-120 0 -228 -64t-182.5 -168t-118.5 -237.5t-44 -271.5zM973 733 q0 121 8.5 214.5t32 181t62 145t102 91.5t149.5 34q72 0 128 -21.5t94.5 -65t64 -99.5t40 -134.5t20 -160t5.5 -185.5q0 -101 -5.5 -181.5t-18.5 -162t-38.5 -140.5t-63 -106.5t-94 -71.5t-128.5 -24q-89 0 -154 35.5t-104 94.5t-62 150.5t-30.5 186t-7.5 219.5z" />
<glyph unicode="&#x1f4b;" horiz-adv-x="2015" d="M0 1225q0 -72 45.5 -129.5t116.5 -81.5l22 33q-54 37 -73 60t-19 69q0 24 17.5 43.5t37.5 15.5q8 -2 27 -2q107 0 107 78q0 35 -22 63.5t-58 28.5q-82 0 -141.5 -51t-59.5 -127zM340 1395q0 -38 27 -68q81 -99 144 -175t90.5 -108.5t27.5 -31.5h53q-173 388 -207 428 q-20 26 -67 26q-34 0 -51 -19.5t-17 -51.5zM772 725q0 -147 43 -282.5t118 -237.5t185 -162.5t236 -60.5q131 0 239 60.5t178 164t109.5 236.5t42.5 282q2 152 -35.5 286t-109.5 235.5t-183.5 160.5t-248.5 59q-159 0 -293 -108.5t-207.5 -278t-73.5 -354.5zM995 733 q0 99 6 180t20.5 159t41 135.5t65 102t94.5 67t128 22.5t128 -21.5t94.5 -65t64 -99.5t40 -134.5t20 -160t5.5 -185.5q0 -101 -5.5 -181.5t-18.5 -162t-38.5 -140.5t-63 -106.5t-94 -71.5t-128.5 -24q-89 0 -154 35.5t-104 94.5t-62 150.5t-31 186t-8 219.5z" />
<glyph unicode="&#x1f4c;" horiz-adv-x="1957" d="M0 1305q0 -78 106 -78q19 0 27 2q19 4 36 -16t17 -42q1 -47 -17.5 -70.5t-72.5 -58.5l23 -34q70 24 115 81.5t45 129.5q0 77 -59 128.5t-140 51.5q-36 0 -58 -29.5t-22 -64.5zM283 1006q53 0 55 2q0 -2 28 30.5t90 107.5t144 177q25 31 25 68q0 69 -66 69q-46 0 -67 -24 q-36 -42 -209 -430zM715 725q0 -198 72 -367t206.5 -272.5t302.5 -103.5q131 0 239 60.5t178.5 164t110 236.5t42.5 282q2 152 -36 286t-109.5 235.5t-183.5 160.5t-249 59q-120 0 -228 -64t-182.5 -168t-118.5 -237.5t-44 -271.5zM938 733q0 121 8.5 214.5t32 181t62 145 t102 91.5t149.5 34q72 0 128 -21.5t94.5 -65t64.5 -99.5t40 -134.5t20 -160t6 -185.5q0 -101 -5.5 -181.5t-19 -162t-39 -141t-63 -106.5t-94 -71t-128.5 -24q-89 0 -154 35.5t-104 94.5t-62 150.5t-30.5 186t-7.5 219.5z" />
<glyph unicode="&#x1f4d;" horiz-adv-x="1949" d="M4 1251q9 40 36.5 72.5t69.5 52t91 19.5q38 0 59 -29t21 -63q0 -43 -43 -65t-91 -11q-22 4 -38.5 -17t-16.5 -43q0 -47 25 -76.5t67 -52.5l-24 -32q-16 5 -38 18t-45.5 32t-39.5 38q-22 28 -32.5 73t-0.5 84zM268 1004q17 46 107 233q77 169 100 195q20 20 57 23.5 t62 -19.5q16 -18 18.5 -38t-8.5 -42t-20.5 -36.5t-30 -38t-25.5 -30.5q-136 -164 -170 -207q-3 -3 -7 -8l-29 -32h-54zM707 725q0 -198 72 -367t206.5 -272.5t302.5 -103.5q131 0 239 60.5t178.5 164t110 236.5t42.5 282q2 152 -36 286t-109.5 235.5t-183.5 160.5t-249 59 q-120 0 -228 -64t-182.5 -168t-118.5 -237.5t-44 -271.5zM930 733q0 121 8.5 214.5t32 181t62 145t102 91.5t149.5 34q72 0 128 -21.5t94.5 -65t64 -99.5t40 -134.5t20 -160t5.5 -185.5q0 -101 -5.5 -181.5t-18.5 -162t-38.5 -140.5t-63 -106.5t-94 -71.5t-128.5 -24 q-89 0 -154 35.5t-104 94.5t-62 150.5t-30.5 186t-7.5 219.5z" />
<glyph unicode="&#x1f50;" horiz-adv-x="897" d="M12 664h45q35 65 97 65q36 0 51.5 -17.5t15.5 -60.5q0 -65 -41 -223q-43 -154 -43 -231q0 -54 21.5 -96.5t56 -67t74 -37t78.5 -12.5q189 0 308 142t154 427q9 67 9 111q0 163 -105 163q-24 0 -40 -7t-23 -22.5t-9 -31.5t2.5 -42.5t9 -46t13.5 -50.5q56 -204 -18 -379 q-74 -185 -246 -185q-64 0 -105 39t-41 101q0 43 27 157q47 196 57 252q7 40 7 62q0 153 -156 153q-144 0 -199 -163zM406 1373.5q5 -37.5 40 -60.5q80 -28 115 -31q21 -6 21 -35q0 -18 -13 -41q-40 -70 -135 -73q-6 -27 -6 -58q16 -4 31 -4q101 0 170 56t69 145 q0 91 -57.5 145.5t-140.5 52.5q-46 0 -72.5 -29.5t-21.5 -67z" />
<glyph unicode="&#x1f51;" horiz-adv-x="897" d="M12 664h45q35 65 97 65q36 0 51.5 -17.5t15.5 -60.5q0 -65 -41 -223q-43 -154 -43 -231q0 -54 21.5 -96.5t56 -67t74 -37t78.5 -12.5q189 0 308 142t154 427q9 67 9 111q0 163 -105 163q-24 0 -40 -7t-23 -22.5t-9 -31.5t2.5 -42.5t9 -46t13.5 -50.5q56 -204 -18 -379 q-74 -185 -246 -185q-64 0 -105 39t-41 101q0 43 27 157q47 196 57 252q7 40 7 62q0 153 -156 153q-144 0 -199 -163zM428 1255q0 -83 62 -135.5t149 -52.5h16q3 15 0 57q-121 18 -127 86q-7 47 12 60t74 18q132 14 111 113q-12 71 -107 65q-73 -6 -131.5 -64t-58.5 -147z " />
<glyph unicode="&#x1f52;" horiz-adv-x="897" d="M12 664h45q35 65 97 65q36 0 51.5 -17.5t15.5 -60.5q0 -65 -41 -223q-43 -154 -43 -231q0 -54 21.5 -96.5t56 -67t74 -37t78.5 -12.5q189 0 308 142t154 427q9 67 9 111q0 163 -105 163q-24 0 -40 -7t-23 -22.5t-9 -31.5t2.5 -42.5t9 -46t13.5 -50.5q56 -204 -18 -379 q-74 -185 -246 -185q-64 0 -105 39t-41 101q0 43 27 157q47 196 57 252q7 40 7 62q0 153 -156 153q-144 0 -199 -163zM133 1313q0 -76 109 -76q16 0 24 2q20 2 38 -17t18 -42q3 -48 -33 -84q-7 -12 -58 -45l23 -33q70 21 115 78.5t45 130.5q0 78 -59.5 129t-141.5 51 q-35 0 -57.5 -28.5t-22.5 -65.5zM451 1399q0 -39 26 -68q81 -99 144 -175t90.5 -108.5t27.5 -31.5h54q-173 385 -207 428q-21 24 -68 24q-67 0 -67 -69z" />
<glyph unicode="&#x1f53;" horiz-adv-x="897" d="M12 664h45q35 65 97 65q36 0 51.5 -17.5t15.5 -60.5q0 -65 -41 -223q-43 -154 -43 -231q0 -54 21.5 -96.5t56 -67t74 -37t78.5 -12.5q189 0 308 142t154 427q9 67 9 111q0 163 -105 163q-24 0 -40 -7t-23 -22.5t-9 -31.5t2.5 -42.5t9 -46t13.5 -50.5q56 -204 -18 -379 q-74 -185 -246 -185q-64 0 -105 39t-41 101q0 43 27 157q47 196 57 252q7 40 7 62q0 153 -156 153q-144 0 -199 -163zM141 1225q0 -72 45.5 -129.5t116.5 -81.5l23 33q-39 26 -54 39t-27 35.5t-12 54.5q0 24 18 43.5t38 15.5q8 -2 26 -2q107 0 107 78q0 35 -22 63.5 t-58 28.5q-82 0 -141.5 -51t-59.5 -127zM481 1395q0 -38 27 -68q81 -99 144 -175t90.5 -108.5t27.5 -31.5h53q-173 388 -207 428q-20 26 -67 26q-34 0 -51 -19.5t-17 -51.5z" />
<glyph unicode="&#x1f54;" horiz-adv-x="897" d="M12 664h45q35 65 97 65q36 0 51.5 -17.5t15.5 -60.5q0 -65 -41 -223q-43 -154 -43 -231q0 -54 21.5 -96.5t56 -67t74 -37t78.5 -12.5q189 0 308 142t154 427q9 67 9 111q0 163 -105 163q-24 0 -40 -7t-23 -22.5t-9 -31.5t2.5 -42.5t9 -46t13.5 -50.5q56 -204 -18 -379 q-74 -185 -246 -185q-64 0 -105 39t-41 101q0 43 27 157q47 196 57 252q7 40 7 62q0 153 -156 153q-144 0 -199 -163zM313 1305q0 -78 107 -78q18 0 26 2q19 4 36.5 -16t17.5 -42q1 -47 -17.5 -70.5t-72.5 -58.5l22 -34q70 24 115 81.5t45 129.5q0 77 -59 128.5t-140 51.5 q-36 0 -58 -29.5t-22 -64.5zM596 1006q53 0 55 2q0 -2 28 30.5t90 107.5t144 177q25 31 25 68q0 69 -66 69q-46 0 -67 -24q-36 -42 -209 -430z" />
<glyph unicode="&#x1f55;" horiz-adv-x="897" d="M12 664h45q35 65 97 65q36 0 51.5 -17.5t15.5 -60.5q0 -65 -41 -223q-43 -154 -43 -231q0 -54 21.5 -96.5t56 -67t74 -37t78.5 -12.5q189 0 308 142t154 427q9 67 9 111q0 163 -105 163q-24 0 -40 -7t-23 -22.5t-9 -31.5t2.5 -42.5t9 -46t13.5 -50.5q56 -204 -18 -379 q-74 -185 -246 -185q-64 0 -105 39t-41 101q0 43 27 157q47 196 57 252q7 40 7 62q0 153 -156 153q-144 0 -199 -163zM326 1167q10 -45 32 -73q24 -28 61 -54t62 -34l25 32q-27 15 -44.5 28.5t-32.5 40.5t-15 60q0 22 16.5 43t38.5 17q48 -11 90.5 10.5t42.5 65.5 q0 34 -21 63t-59 29q-73 0 -127.5 -41.5t-68.5 -102.5q-10 -39 0 -84zM590 1004h53q0 -2 17 17q8 9 20 23l170 207q44 57 55 68q24 28 26 63t-16 54q-25 23 -61.5 19.5t-56.5 -23.5q-25 -28 -101 -195q-84 -177 -106 -233z" />
<glyph unicode="&#x1f56;" horiz-adv-x="897" d="M12 664h45q35 65 97 65q36 0 51.5 -17.5t15.5 -60.5q0 -65 -41 -223q-43 -154 -43 -231q0 -54 21.5 -96.5t56 -67t74 -37t78.5 -12.5q189 0 308 142t154 427q9 67 9 111q0 163 -105 163q-24 0 -40 -7t-23 -22.5t-9 -31.5t2.5 -42.5t9 -46t13.5 -50.5q56 -204 -18 -379 q-74 -185 -246 -185q-64 0 -105 39t-41 101q0 43 27 157q47 196 57 252q7 40 7 62q0 153 -156 153q-144 0 -199 -163zM186 1229h58q70 141 243 141q203 0 256 -141h56q0 50 -56 121q-88 116 -256 116q-213 0 -301 -237zM367 1163q0 -80 106 -80q11 0 27 4q20 4 37.5 -15.5 t17.5 -43.5q0 -46 -19.5 -70t-72.5 -59l24 -33q69 21 114.5 79t45.5 130q0 76 -60 128t-141 52q-36 0 -57.5 -28.5t-21.5 -63.5z" />
<glyph unicode="&#x1f57;" horiz-adv-x="897" d="M12 664h45q35 65 97 65q36 0 51.5 -17.5t15.5 -60.5q0 -65 -41 -223q-43 -154 -43 -231q0 -54 21.5 -96.5t56 -67t74 -37t78.5 -12.5q189 0 308 142t154 427q9 67 9 111q0 163 -105 163q-24 0 -40 -7t-23 -22.5t-9 -31.5t2.5 -42.5t9 -46t13.5 -50.5q56 -204 -18 -379 q-74 -185 -246 -185q-64 0 -105 39t-41 101q0 43 27 157q47 196 57 252q7 40 7 62q0 153 -156 153q-144 0 -199 -163zM207 1227h57q74 141 246 141q202 0 254 -141h57q0 51 -55 121q-88 114 -258 114q-213 0 -301 -235zM352 1083q0 -71 44.5 -128t113.5 -81l25 33 q-39 26 -54 39t-26.5 35.5t-10.5 54.5q0 24 18 44t38 16q6 -2 24 -2q109 0 109 77q0 35 -23 64.5t-59 30.5q-83 0 -141 -51.5t-58 -131.5z" />
<glyph unicode="&#x1f59;" horiz-adv-x="1726" d="M0 1255q0 -83 62 -135.5t149 -52.5h16q3 15 0 57q-121 18 -127 86q-7 47 12 60t74 18q132 14 111 113q-12 71 -107 65q-73 -6 -131.5 -64t-58.5 -147zM375 1272l37 -35q3 10 37.5 44.5t54.5 33.5q89 -3 198 -217q194 -376 234 -518v-439q0 -84 -82 -84h-129v-57h604v57 h-127q-82 0 -82 84v441q110 281 250 553q83 157 164 157q36 0 70 -24q28 -22 28 -23l39 27q-25 110 -75.5 152t-115 6t-128.5 -148q-24 -43 -51 -99t-47.5 -102t-49.5 -115.5t-43 -104.5t-42 -105.5t-34 -85.5q-128 321 -205 475t-147 229q-30 31 -62.5 50.5t-71 24 t-76 -9.5t-76.5 -56t-72 -111z" />
<glyph unicode="&#x1f5b;" horiz-adv-x="2101" d="M0 1225q0 -72 45.5 -129.5t116.5 -81.5l22 33q-54 37 -73 60t-19 69q0 24 17.5 43.5t37.5 15.5q8 -2 27 -2q107 0 107 78q0 35 -22 63.5t-58 28.5q-82 0 -141.5 -51t-59.5 -127zM340 1395q0 -38 27 -68q81 -99 144 -175t90.5 -108.5t27.5 -31.5h53q-173 388 -207 428 q-20 26 -67 26q-34 0 -51 -19.5t-17 -51.5zM750 1272l36 -35q3 10 38 44.5t55 33.5q89 -3 198 -217q194 -376 234 -518v-439q0 -84 -82 -84h-129v-57h604v57h-127q-82 0 -82 84v441q110 281 250 553q83 157 164 157q35 0 69 -24l29 -23l39 27q-25 110 -75.5 152t-115.5 6 t-129 -148q-28 -51 -58 -112.5t-63 -140t-51 -122.5t-53.5 -134.5t-40.5 -102.5q-127 321 -204.5 475t-147.5 229q-30 31 -62.5 50.5t-71 24t-76 -9.5t-76.5 -56t-72 -111z" />
<glyph unicode="&#x1f5d;" horiz-adv-x="2035" d="M4 1251q-10 -39 0.5 -84t32.5 -73q24 -28 61 -54t62 -34l24 32q-41 23 -66.5 52.5t-25.5 76.5q0 22 16.5 43t38.5 17q32 -6 61.5 -0.5t51 26.5t21.5 50q0 34 -21 63t-59 29q-74 0 -128.5 -41.5t-68.5 -102.5zM268 1004h54q0 -1 6.5 6t29.5 34l170 207q41 52 56 68 q24 28 26 63t-16 54q-25 23 -62 19.5t-57 -23.5q-23 -26 -100 -195q-90 -187 -107 -233zM684 1272l37 -35q3 10 37.5 44.5t54.5 33.5q90 -3 199 -217q192 -372 233 -518v-439q0 -84 -82 -84h-129v-57h604v57h-127q-81 0 -81 84v441q113 289 249 553q83 157 164 157 q36 0 70 -24l29 -23l38 27q-19 82 -53 126.5t-76 47.5t-92 -38.5t-98 -125.5q-24 -43 -50.5 -98.5t-48 -103.5t-49 -114t-43 -105.5t-41.5 -104.5t-34 -86q-127 320 -204.5 474.5t-148.5 229.5q-24 25 -51 42.5t-57.5 27.5t-62.5 5t-63.5 -23t-63.5 -57t-60 -97z" />
<glyph unicode="&#x1f5f;" horiz-adv-x="2035" d="M0 1227h57q73 141 246 141q201 0 254 -141h57q0 51 -55 121q-89 114 -258 114q-213 0 -301 -235zM145 1083q0 -71 44.5 -128t113.5 -81l25 33q-54 37 -72.5 60t-17.5 69q0 24 17.5 44t37.5 16q6 -2 24 -2q109 0 109 77q0 35 -23 64.5t-59 30.5q-83 0 -141 -51.5 t-58 -131.5zM684 1272l37 -35q3 10 37.5 44.5t54.5 33.5q90 -3 199 -217q192 -372 233 -518v-439q0 -84 -82 -84h-129v-57h604v57h-127q-81 0 -81 84v441q113 289 249 553q83 157 164 157q36 0 70 -24l29 -23l38 27q-25 110 -75.5 152t-115 6t-128.5 -148 q-28 -51 -58 -112.5t-63 -140t-51 -122.5t-53.5 -134.5t-40.5 -102.5q-127 320 -204.5 474.5t-148.5 229.5q-30 31 -62.5 50.5t-71 24t-76 -9.5t-76.5 -56t-72 -111z" />
<glyph unicode="&#x1f60;" horiz-adv-x="1433" d="M70 307q-6 -146 71 -235.5t205 -89.5q131 0 212.5 53t135.5 174q42 -134 113 -183t192 -49q164 0 267 119.5t108 286.5q3 270 -182 424q-23 20 -55 31l-19 -35q49 -35 68.5 -103.5t19.5 -179.5q0 -100 -12 -174q-58 -289 -225 -289q-56 0 -95 13.5t-60.5 40t-32 55 t-17.5 70.5q102 199 115 299q17 135 -103 135q-53 0 -85 -33.5t-43 -89.5t-14.5 -128.5t1.5 -150.5q-18 -94 -81 -151.5t-138 -57.5q-172 0 -172 199v33q7 77 23.5 139t36 105t57.5 89t69 75t88 79q20 16 23 17q-15 35 -17 41q-22 -9 -35 -11q-180 -57 -296 -199t-123 -319z M804.5 1363q4.5 -37 37.5 -60q80 -28 116 -31q21 -9 21 -35q0 -22 -12 -43q-41 -71 -136 -74q-6 -27 -6 -57q8 -2 31 -2q87 0 162.5 57t75.5 144q0 10 -4 34q-18 69 -72 115.5t-121 46.5q-46 0 -71.5 -29t-21 -66z" />
<glyph unicode="&#x1f61;" horiz-adv-x="1433" d="M70 307q-6 -146 71 -235.5t205 -89.5q131 0 212.5 53t135.5 174q42 -134 113 -183t192 -49q164 0 267 119.5t108 286.5q3 270 -182 424q-23 20 -55 31l-19 -35q49 -35 68.5 -103.5t19.5 -179.5q0 -100 -12 -174q-58 -289 -225 -289q-56 0 -95 13.5t-60.5 40t-32 55 t-17.5 70.5q102 199 115 299q17 135 -103 135q-53 0 -85 -33.5t-43 -89.5t-14.5 -128.5t1.5 -150.5q-18 -94 -81 -151.5t-138 -57.5q-172 0 -172 199v33q7 77 23.5 139t36 105t57.5 89t69 75t88 79q20 16 23 17q-15 35 -17 41q-22 -9 -35 -11q-180 -57 -296 -199t-123 -319z M770 1251q0 -84 61 -137t148 -53q12 0 16 2q3 15 0 55q-118 18 -127 86q-5 47 11 60t66 19q6 1 9 1q57 6 91 30.5t22 80.5q-15 70 -109 67q-73 -6 -130.5 -63.5t-57.5 -147.5z" />
<glyph unicode="&#x1f62;" horiz-adv-x="1433" d="M70 307q-9 -141 68 -233t208 -92q115 0 184 36q104 55 166 191q22 -74 54 -121.5t73 -73.5q60 -39 176 -39q82 0 152.5 33.5t118 90t75 130.5t29.5 154q3 266 -182 424l-18 12q-26 17 -37 19l-19 -35q14 -7 37 -39q51 -71 51 -236q0 -37 -3 -75.5t-7 -72t-4 -34.5 q-6 -36 -17 -73t-30 -76.5t-43 -70t-59 -50t-74 -19.5q-53 0 -90.5 12.5t-60 38.5t-34.5 55.5t-20 72.5q5 14 15 34.5t23.5 46t20.5 39.5q49 111 56 164q6 75 -22.5 112.5t-78.5 37.5q-145 0 -146 -294q0 -34 3 -108q-11 -56 -40.5 -102.5t-76.5 -76.5t-102 -30 q-82 0 -133 60q-19 23 -29 58t-11 74t4.5 81.5t15.5 82t24 72.5q64 150 157 230q68 54 88 74l9 4l-17 39q-22 -11 -35 -11q-83 -28 -155 -75t-130 -111t-93.5 -149.5t-40.5 -180.5zM498 1315q0 -44 42.5 -65.5t90.5 -10.5q11 2 21.5 -2.5t17.5 -13.5t11.5 -20t4.5 -21 q0 -78 -92 -129l24 -35q30 10 61 32t57 53.5t37.5 74t0.5 86.5q-14 62 -68.5 103.5t-127.5 41.5q-38 0 -59 -30t-21 -64zM813.5 1398.5q0.5 -11.5 5.5 -25t11 -24t16 -23.5t17.5 -21.5t18.5 -21t17 -19.5q46 -59 88 -107l82 -98q35 -44 35 -41h53q-3 7 -19 40t-26 58 q-29 69 -85.5 185t-76.5 145q-20 20 -58 24t-61 -20q-9 -13 -13.5 -26.5t-4 -25z" />
</font>
</defs>
</svg>
